<?xml version="1.0" encoding="UTF-8" standalone="no"?>
<!DOCTYPE svg  PUBLIC '-//W3C//DTD SVG 1.1//EN'  'http://www.w3.org/Graphics/SVG/1.1/DTD/svg11.dtd'>
<svg xmlns="http://www.w3.org/2000/svg">
<defs>
<font id="UniSansThinCAPS-Regular" horiz-adv-x="600">
<font-face underline-position="-50" font-weight="250" descent="-200" panose-1="0 0 5 0 0 0 0 0 0 0" units-per-em="1000" unicode-range="U+0020-25CA" bbox="3 -211 981 921" font-variant="small-caps" x-height="708" underline-thickness="50" font-family="UniSansThinCAPS" ascent="800" cap-height="708"/>
<missing-glyph horiz-adv-x="1000"/>
<glyph glyph-name=".notdef" horiz-adv-x="1000"/>
<glyph glyph-name=".null" horiz-adv-x="0"/>
<glyph glyph-name="nonmarkingreturn" horiz-adv-x="333"/>
<glyph glyph-name="space" horiz-adv-x="246" unicode=" "/>
<glyph glyph-name="exclam" horiz-adv-x="194" unicode="!" d="M66 30q0 13 9 22t22 9t22 -9t9 -22t-9 -22t-22 -9t-22 9t-9 22zM84 132v577h25v-577h-25z"/>
<glyph glyph-name="quotedbl" horiz-adv-x="266" unicode='&quot;' d="M195 708l-12 -176h-13v176h25zM103 708l-12 -176h-13v176h25z"/>
<glyph glyph-name="numbersign" horiz-adv-x="729" unicode="#" d="M291 454l-57 -195h201l57 195h-201zM457 259h185l-6 -20h-185l-72 -239h-24l73 239h-200l-72 -239h-24l73 239h-160l5 20h162l57 195h-184l6 21h185l69 234h23l-70 -234h201l68 234h25l-71 -234h163l-7 -21h-164z"/>
<glyph glyph-name="dollar" horiz-adv-x="585" unicode="$" d="M502 172q0 41 -15 71.5t-45 50t-61 31.5t-76 22v-335q77 0 137 43t60 117zM89 542q0 -71 51.5 -108t144.5 -58v318q-80 -2 -138 -41.5t-58 -110.5zM305 789v-71q147 -5 207 -109l-23 -9q-25 43 -75 67.5t-109 26.5v-322q38 -8 67 -16.5t60.5 -24.5t51.5 -36.5t33 -52 t13 -70.5q0 -84 -67.5 -133.5t-157.5 -49.5v-84h-20v84q-68 0 -129 28.5t-98 84.5l23 10q32 -47 87.5 -73.5t116.5 -26.5v339q-47 10 -80 21.5t-68.5 32.5t-54 55.5t-18.5 81.5q0 86 64.5 130t156.5 46v71h20z"/>
<glyph glyph-name="percent" horiz-adv-x="714" unicode="%" d="M638 172q0 155 -112 155q-109 0 -109 -152q0 -82 26.5 -118.5t83.5 -36.5q111 0 111 152zM666 173q0 -83 -38.5 -131.5t-99.5 -48.5q-66 0 -102 47t-36 135q0 85 38 132t100 47q65 0 101.5 -47.5t36.5 -133.5zM296 525q0 155 -111 155q-108 0 -108 -153q0 -82 26 -118.5 t83 -36.5q110 0 110 153zM324 525q0 -83 -38.5 -131.5t-99.5 -48.5q-66 0 -102 47t-36 135q0 85 38 132t100 47q65 0 101.5 -47.5t36.5 -133.5zM614 731l-491 -779q-5 2 -11.5 7t-9.5 6l492 778z"/>
<glyph glyph-name="ampersand" horiz-adv-x="609" unicode="&amp;" d="M442 143l-214 239q-155 -90 -155 -202q0 -75 47.5 -119t130.5 -44q104 0 191 126zM277 688q-54 0 -92 -34t-38 -85q0 -64 88 -164q77 39 119 77t42 92q0 50 -33.5 82t-85.5 32zM453 165l62 98l17 -9l-63 -103l110 -125h-29l-92 103q-49 -66 -99.5 -99.5t-115.5 -33.5 q-83 0 -139 50t-56 132q0 121 165 218q-91 108 -91 171q0 64 46.5 103.5t111.5 39.5q56 0 98 -38t42 -94q0 -60 -39.5 -100.5t-107.5 -75.5l-23 -14z"/>
<glyph glyph-name="quotesingle" horiz-adv-x="178" unicode="&apos;" d="M105 708l-8 -177h-19v177h27z"/>
<glyph glyph-name="parenleft" horiz-adv-x="246" unicode="(" d="M187 762l18 -14q-119 -174 -119 -407q0 -232 124 -410l-19 -11q-131 188 -131 423q0 229 127 419z"/>
<glyph glyph-name="parenright" horiz-adv-x="246" unicode=")" d="M61 -110l-21 13q119 182 119 409q0 231 -122 426l16 10l-1 -1q1 0 2 1q2 2 3 2q129 -190 129 -436q0 -242 -125 -424z"/>
<glyph glyph-name="asterisk" horiz-adv-x="442" unicode="*" d="M233 709l-2 -155q43 13 72.5 23.5t49 18t25.5 9.5l6 -20l-147 -46l95 -130l-16 -11l-94 130q-15 -22 -48.5 -67t-45.5 -63l-16 13l99 128q-28 8 -83 25.5t-69 21.5q1 3 2 10t2 10l152 -51q0 24 -1 76.5t-1 77.5h20z"/>
<glyph glyph-name="plus" horiz-adv-x="577" unicode="+" d="M281 352v226h22v-226h223v-23h-223v-227h-22v227h-231v23h231z"/>
<glyph glyph-name="comma" horiz-adv-x="192" unicode="," d="M119 41l-68 -162h-22l55 162h35z"/>
<glyph glyph-name="hyphen" horiz-adv-x="421" unicode="-" d="M345 312v-24h-269v24h269z"/>
<glyph glyph-name="period" horiz-adv-x="214" unicode="." d="M76 28q0 13 9 22t22 9t22 -9t9 -22t-9 -22t-22 -9t-22 9t-9 22z"/>
<glyph glyph-name="slash" horiz-adv-x="372" unicode="/" d="M323 723l18 -6q-81 -205 -145.5 -368.5t-94 -238.5t-49.5 -125q-19 5 -21 6z"/>
<glyph glyph-name="zero" horiz-adv-x="625" unicode="0" d="M99 529v-350q0 -83 64.5 -123.5t149.5 -40.5q53 0 99 15t80 53.5t34 95.5v350q0 57 -34 96t-80 53.5t-99 14.5q-54 0 -100 -14.5t-80 -53.5t-34 -96zM313 -10q-94 0 -166.5 49.5t-72.5 139.5v350q0 62 37 106t89.5 63.5t112.5 19.5q59 0 111.5 -19.5t89.5 -63.5t37 -106 v-350q0 -90 -72 -139.5t-166 -49.5z"/>
<glyph glyph-name="one" horiz-adv-x="291" unicode="1" d="M199 708v-708h-24v683l-139 -147l-16 14l145 158h34z"/>
<glyph glyph-name="two" horiz-adv-x="549" unicode="2" d="M271 693h-10q-125 0 -180 -103l-22 10q56 117 213 118q94 -1 155.5 -54.5t61.5 -132.5q0 -82 -85 -170l-322 -336h408v-25h-435l-11 23l341 357q78 81 78 152q0 66 -53 112t-139 49z"/>
<glyph glyph-name="three" horiz-adv-x="568" unicode="3" d="M45 95l21 13q68 -94 202 -94q87 0 151 46t64 127q0 90 -50.5 137.5t-139.5 47.5h-3h-68v24h68q72 0 116.5 38.5t44.5 111.5q0 72 -55.5 110.5t-130.5 38.5q-119 0 -171 -77l-20 10q58 90 193 90q85 0 146.5 -44.5t61.5 -127.5q0 -116 -99 -159q74 -27 103 -78t29 -123 q-1 -62 -36.5 -107.5t-89 -67t-114.5 -21.5q-152 0 -223 105z"/>
<glyph glyph-name="four" horiz-adv-x="572" unicode="4" d="M432 684l-376 -462h375zM456 222h69v-23h-69v-199h-25v199h-384l-16 30l390 479h35v-486z"/>
<glyph glyph-name="five" horiz-adv-x="574" unicode="5" d="M61 93l24 12q28 -42 81.5 -66t112.5 -24q216 0 216 235q0 83 -61 132.5t-148 49.5q-104 0 -195 -46l-11 -1v323h404v-23h-379v-267q87 38 174 38h8q94 -1 163.5 -54t70.5 -151q0 -262 -242 -262q-69 0 -127 26t-91 78z"/>
<glyph glyph-name="six" horiz-adv-x="618" unicode="6" d="M536 180v60q0 79 -63 122.5t-153 43.5q-92 0 -156.5 -43.5t-64.5 -122.5v-60q0 -79 64.5 -122.5t156.5 -43.5q90 0 153 43.5t63 122.5zM534 622l-23 -12q-52 84 -191 84q-92 0 -156.5 -43.5t-64.5 -122.5v-208q63 110 221 110q99 -1 170 -50.5t71 -138.5v-62 q0 -89 -71.5 -139t-169.5 -50h-3q-99 0 -171 50t-72 139v350q0 89 72 139t171 50h3q153 0 214 -96z"/>
<glyph glyph-name="seven" horiz-adv-x="493" unicode="7" d="M39 684v24h419l14 -24l-374 -684h-28l373 684h-404z"/>
<glyph glyph-name="eight" horiz-adv-x="614" unicode="8" d="M297 13h19q83 0 148.5 47t65.5 132q0 180 -214 180h-19q-214 0 -214 -180q0 -85 65.5 -132t148.5 -47zM316 696h-19q-76 0 -129 -38.5t-53 -111.5q0 -81 52.5 -117.5t129.5 -36.5h19q77 0 129.5 36.5t52.5 117.5q0 73 -53 111.5t-129 38.5zM316 -10h-19q-95 0 -166 54.5 t-72 146.5q0 148 142 191q-58 19 -83.5 64.5t-25.5 99.5q1 81 61 126.5t144 45.5h19q83 0 144 -45.5t61 -126.5q0 -124 -108 -163q141 -39 142 -192q-2 -92 -72.5 -146.5t-166.5 -54.5z"/>
<glyph glyph-name="nine" horiz-adv-x="618" unicode="9" d="M82 528v-60q0 -79 63 -122.5t153 -43.5q92 0 157 43.5t65 122.5v60q0 79 -65 122.5t-157 43.5q-90 0 -153 -43.5t-63 -122.5zM85 90l24 12q54 -88 189 -88q91 0 156 44.5t65 124.5v197q-42 -63 -96.5 -82.5t-124.5 -19.5q-99 1 -170 50.5t-71 138.5v62q0 89 71.5 139 t169.5 50h3q63 0 116.5 -20t89.5 -64t37 -105v-349q0 -89 -72 -139.5t-171 -50.5h-3q-149 0 -213 100z"/>
<glyph glyph-name="colon" horiz-adv-x="214" unicode=":" d="M76 57q0 13 9 22t22 9t22 -9t9 -22t-9 -22t-22 -9t-22 9t-9 22zM76 435q0 13 9 22t22 9t22 -9t9 -22t-9 -22t-22 -9t-22 9t-9 22z"/>
<glyph glyph-name="semicolon" horiz-adv-x="272" unicode=";" d="M167 45l-60 -144h-25l44 144h41zM109 420q0 13 9 22t22 9t22 -9t9 -22t-9 -22t-22 -9t-22 9t-9 22z"/>
<glyph glyph-name="less" horiz-adv-x="442" unicode="&lt;" d="M70 303l300 -175v-25q-54 32 -161 93.5t-161 93.5v26l322 190v-26z"/>
<glyph glyph-name="equal" horiz-adv-x="529" unicode="=" d="M451 244v-22h-373v22h373zM451 382v-22h-373v22h373z"/>
<glyph glyph-name="greater" horiz-adv-x="445" unicode="&gt;" d="M72 480v26q54 -33 162 -95t163 -95v-26l-325 -187v23l304 177q-40 23 -145 84.5t-159 92.5z"/>
<glyph glyph-name="question" horiz-adv-x="452" unicode="?" d="M188 51q11 0 19 -8t8 -19t-8 -18.5t-19 -7.5t-19 7.5t-8 18.5t8 19t19 8zM49 630l-14 14q71 69 166 69q84 0 146 -49.5t62 -136.5q0 -91 -60 -148t-146 -66l-6 -193h-18l-4 210q87 6 149 59t62 134q0 79 -55 123t-132 44q-37 0 -78.5 -17t-71.5 -43z"/>
<glyph glyph-name="at" horiz-adv-x="779" unicode="@" d="M230 227q0 -49 27.5 -80t72.5 -31q56 0 103.5 52t70.5 122q13 39 13 78q0 47 -21 77.5t-67 30.5h-9h-3q-59 0 -103.5 -42t-64 -97.5t-19.5 -109.5zM590 474l-88 -262q-13 -39 -13 -57q0 -34 38 -34q69 0 125 76t56 174q0 117 -87.5 189t-209.5 72q-144 0 -236.5 -95 t-92.5 -236t83 -225.5t207 -84.5q56 0 113 19l6 -19q-63 -20 -121 -20q-132 0 -220.5 89.5t-88.5 240.5t101 251.5t247 100.5q138 0 229.5 -78.5t91.5 -203.5q0 -116 -67.5 -194t-140.5 -78h-7q-49 4 -49 52q0 14 4 30q-61 -85 -145 -85q-55 0 -85 37t-30 92 q0 106 59.5 188.5t154.5 82.5q101 0 110 -106l5 -1l30 85h21z"/>
<glyph glyph-name="A" d="M302 684h-4l-150 -406h304zM139 253l-94 -253h-27l262 708h40l262 -708h-27l-94 253h-322z" unicode="A"/>
<glyph glyph-name="B" horiz-adv-x="627" unicode="B" d="M118 24h234h7q87 0 137 40t50 126q0 173 -191 173h-3h-234v-339zM118 387h234q73 0 117 37t44 111q0 72 -45 111t-116 39h-234v-298zM435 376l35 -12q53 -22 77 -70t24 -101q0 -193 -220 -193h-258v708h259q81 0 133 -45.5t52 -126.5q0 -101 -71 -143z"/>
<glyph glyph-name="C" horiz-adv-x="584" unicode="C" d="M78 188v332q0 92 75 145t176 53q70 0 130 -26.5t90 -75.5l-22 -16q-27 44 -82.5 69t-118.5 25q-90 0 -156.5 -46t-66.5 -128v-332q0 -82 66.5 -127.5t156.5 -45.5q63 0 118 23t83 66l22 -11q-30 -49 -91.5 -76t-131.5 -27q-100 0 -174 52.5t-74 145.5z"/>
<glyph glyph-name="D" horiz-adv-x="641" unicode="D" d="M118 25h214q90 0 146.5 40.5t56.5 123.5v329q0 84 -56.5 124.5t-146.5 40.5h-214v-658zM93 708h239q100 0 164 -47.5t64 -142.5v-329q0 -95 -64 -142t-164 -47h-239v708z"/>
<glyph glyph-name="E" horiz-adv-x="565" unicode="E" d="M118 683v-317h366v-27h-366v-314h396v-25h-421v708h421v-25h-396z"/>
<glyph glyph-name="F" horiz-adv-x="537" unicode="F" d="M501 683h-383v-330h348v-25h-348v-328h-25v708h408v-25z"/>
<glyph glyph-name="G" horiz-adv-x="634" unicode="G" d="M78 191v329q0 92 74 145t174 53q69 0 128.5 -27t90.5 -76l-23 -15q-26 46 -79.5 69.5t-118.5 23.5q-90 0 -155.5 -45.5t-65.5 -127.5v-329q0 -84 66 -130.5t157 -46.5q90 0 157 47t67 130v134h-217v24h242v-158q0 -95 -74 -148t-175 -53t-174.5 53t-73.5 148z"/>
<glyph glyph-name="H" horiz-adv-x="683" unicode="H" d="M118 341v-341h-25v708h25v-342h447v342h25v-708h-25v341h-447z"/>
<glyph glyph-name="I" horiz-adv-x="211" unicode="I" d="M118 708v-708h-25v708h25z"/>
<glyph glyph-name="J" horiz-adv-x="577" unicode="J" d="M228 685v23h261v-521q0 -92 -71 -144.5t-167 -52.5q-77 0 -140 37.5t-84 105.5l25 8q21 -63 78 -95t122 -32q85 0 148.5 45.5t63.5 127.5v498h-236z"/>
<glyph glyph-name="K" horiz-adv-x="591" unicode="K" d="M118 708v-430l419 430h32l-327 -341l327 -367h-29l-316 349l-106 -106v-243h-25v708h25z"/>
<glyph glyph-name="L" horiz-adv-x="493" unicode="L" d="M472 0h-379v708h25v-683h354v-25z"/>
<glyph glyph-name="M" horiz-adv-x="797" unicode="M" d="M382 112l-255 571l-9 -1v-682h-25v708h53l253 -573l252 573h53v-708h-25v690h-9l-254 -578h-34z"/>
<glyph glyph-name="N" horiz-adv-x="671" unicode="N" d="M132 708l421 -684v684h25v-708h-43l-415 676l-1 -676h-26v708h39z"/>
<glyph glyph-name="O" horiz-adv-x="682" unicode="O" d="M102 518v-327q0 -84 70.5 -130t167.5 -46t168 46.5t71 129.5v327q0 87 -70.5 131.5t-169.5 44.5q-98 -1 -167.5 -45.5t-69.5 -130.5zM77 191v327q0 94 78 147t185 53t185.5 -53t78.5 -147v-327q0 -94 -78.5 -147.5t-185.5 -53.5t-185 53.5t-78 147.5z"/>
<glyph glyph-name="P" horiz-adv-x="602" unicode="P" d="M118 307h225q92 0 142 55.5t50 131.5t-51 133t-141 58h-225v-378zM118 0h-25v708h250q102 -1 159.5 -65.5t57.5 -149.5q0 -84 -57 -147t-159 -64h-226v-282z"/>
<glyph glyph-name="Q" horiz-adv-x="682" unicode="Q" d="M472 156l59 -77q48 39 48 112v327q0 84 -70.5 130t-167.5 46q-98 -1 -168 -45.5t-70 -130.5v-327q0 -82 71 -129.5t167 -47.5t174 50l-62 78zM581 -17l-52 61q-80 -54 -188 -54q-107 0 -185 53.5t-78 147.5v327q0 94 78 147t185 53q106 0 184.5 -53t78.5 -147v-327 q0 -44 -13.5 -72.5t-43.5 -59.5l53 -63z"/>
<glyph glyph-name="R" horiz-adv-x="611" unicode="R" d="M117 338h227q98 0 146.5 42.5t48.5 134.5q0 170 -188 170h-7h-227v-347zM545 0h-29l-238 316h-161v-316h-24v708h250q216 0 220 -192q0 -200 -219 -200h-38z"/>
<glyph glyph-name="S" horiz-adv-x="578" unicode="S" d="M86 546v-11q0 -119 208 -161q48 -9 85 -22t73 -35t55.5 -57t19.5 -80q0 -2 -0.5 -7t-0.5 -8q-6 -81 -75.5 -128t-162.5 -47q-70 0 -132.5 28.5t-100.5 85.5l23 10q34 -48 91 -74t121 -26q80 0 139.5 38.5t69.5 112.5q0 3 0.5 7t0.5 7q0 33 -12.5 59.5t-31 43.5t-48.5 31 t-56.5 21.5t-63.5 15.5q-36 7 -64 15t-60.5 23t-53.5 34t-35 48.5t-14 66.5v9q3 83 69.5 127.5t158.5 44.5q158 0 220 -109l-23 -9q-27 46 -80.5 70t-116.5 24q-82 0 -140 -36.5t-63 -111.5z"/>
<glyph glyph-name="T" horiz-adv-x="541" unicode="T" d="M519 708v-25h-236v-683h-25v683h-236v25h497z"/>
<glyph glyph-name="U" horiz-adv-x="673" unicode="U" d="M113 708v-514q0 -85 66 -132.5t157 -47.5q90 0 157 47.5t67 132.5v514h25v-514q0 -96 -74 -150t-175 -54q-100 0 -174 54t-74 150v514h25z"/>
<glyph glyph-name="V" horiz-adv-x="602" unicode="V" d="M554 709h28l-260 -709h-40l-266 708h29l255 -679h5z"/>
<glyph glyph-name="W" horiz-adv-x="927" unicode="W" d="M874 708h27l-207 -708h-41l-189 578l-190 -578h-39l-210 708h27l201 -673h5l189 567h33l190 -569h6z"/>
<glyph glyph-name="X" horiz-adv-x="547" unicode="X" d="M288 353l232 -353h-29l-217 336l-217 -336h-31l233 353l-232 355h28l219 -332l218 332h29z"/>
<glyph glyph-name="Y" horiz-adv-x="550" unicode="Y" d="M286 281v-281h-25v281l-242 427h30l225 -399l232 399h31z"/>
<glyph glyph-name="Z" horiz-adv-x="549" unicode="Z" d="M49 686v22h460l9 -13l-455 -673h441v-22h-465l-10 12l455 674h-435z"/>
<glyph glyph-name="bracketleft" horiz-adv-x="237" unicode="[" d="M103 730v-828h92v-22h-116v871h116v-21h-92z"/>
<glyph glyph-name="backslash" horiz-adv-x="385" unicode="\" d="M335 -29l-306 770l19 7l309 -770z"/>
<glyph glyph-name="bracketright" horiz-adv-x="238" unicode="]" d="M133 -101v828h-90v24h116v-877h-116v25h90z"/>
<glyph glyph-name="asciicircum" horiz-adv-x="509" unicode="^" d="M237 708h28q106 -156 182 -256h-27l-169 239l-163 -239h-27z"/>
<glyph glyph-name="underscore" horiz-adv-x="589" unicode="_" d="M527 -21v-22h-466v22h466z"/>
<glyph glyph-name="grave" horiz-adv-x="210" unicode="`" d="M94 759l-72 103h35l62 -103h-25z"/>
<glyph glyph-name="a" d="M302 684h-4l-150 -406h304zM139 253l-94 -253h-27l262 708h40l262 -708h-27l-94 253h-322z" unicode="a"/>
<glyph glyph-name="b" horiz-adv-x="627" unicode="b" d="M118 24h234h7q87 0 137 40t50 126q0 173 -191 173h-3h-234v-339zM118 387h234q73 0 117 37t44 111q0 72 -45 111t-116 39h-234v-298zM435 376l35 -12q53 -22 77 -70t24 -101q0 -193 -220 -193h-258v708h259q81 0 133 -45.5t52 -126.5q0 -101 -71 -143z"/>
<glyph glyph-name="c" horiz-adv-x="584" unicode="c" d="M78 188v332q0 92 75 145t176 53q70 0 130 -26.5t90 -75.5l-22 -16q-27 44 -82.5 69t-118.5 25q-90 0 -156.5 -46t-66.5 -128v-332q0 -82 66.5 -127.5t156.5 -45.5q63 0 118 23t83 66l22 -11q-30 -49 -91.5 -76t-131.5 -27q-100 0 -174 52.5t-74 145.5z"/>
<glyph glyph-name="d" horiz-adv-x="641" unicode="d" d="M118 25h214q90 0 146.5 40.5t56.5 123.5v329q0 84 -56.5 124.5t-146.5 40.5h-214v-658zM93 708h239q100 0 164 -47.5t64 -142.5v-329q0 -95 -64 -142t-164 -47h-239v708z"/>
<glyph glyph-name="e" horiz-adv-x="565" unicode="e" d="M118 683v-317h366v-27h-366v-314h396v-25h-421v708h421v-25h-396z"/>
<glyph glyph-name="f" horiz-adv-x="537" unicode="f" d="M501 683h-383v-330h348v-25h-348v-328h-25v708h408v-25z"/>
<glyph glyph-name="g" horiz-adv-x="634" unicode="g" d="M78 191v329q0 92 74 145t174 53q69 0 128.5 -27t90.5 -76l-23 -15q-26 46 -79.5 69.5t-118.5 23.5q-90 0 -155.5 -45.5t-65.5 -127.5v-329q0 -84 66 -130.5t157 -46.5q90 0 157 47t67 130v134h-217v24h242v-158q0 -95 -74 -148t-175 -53t-174.5 53t-73.5 148z"/>
<glyph glyph-name="h" horiz-adv-x="683" unicode="h" d="M118 341v-341h-25v708h25v-342h447v342h25v-708h-25v341h-447z"/>
<glyph glyph-name="i" horiz-adv-x="211" unicode="i" d="M118 708v-708h-25v708h25z"/>
<glyph glyph-name="j" horiz-adv-x="577" unicode="j" d="M228 685v23h261v-521q0 -92 -71 -144.5t-167 -52.5q-77 0 -140 37.5t-84 105.5l25 8q21 -63 78 -95t122 -32q85 0 148.5 45.5t63.5 127.5v498h-236z"/>
<glyph glyph-name="k" horiz-adv-x="591" unicode="k" d="M118 708v-430l419 430h32l-327 -341l327 -367h-29l-316 349l-106 -106v-243h-25v708h25z"/>
<glyph glyph-name="l" horiz-adv-x="492" unicode="l" d="M471 0h-379v708h25v-683h354v-25z"/>
<glyph glyph-name="m" horiz-adv-x="797" unicode="m" d="M382 112l-255 571l-9 -1v-682h-25v708h53l253 -573l252 573h53v-708h-25v690h-9l-254 -578h-34z"/>
<glyph glyph-name="n" horiz-adv-x="671" unicode="n" d="M132 708l421 -684v684h25v-708h-43l-415 676l-1 -676h-26v708h39z"/>
<glyph glyph-name="o" horiz-adv-x="682" unicode="o" d="M102 518v-327q0 -84 70.5 -130t167.5 -46t168 46.5t71 129.5v327q0 87 -70.5 131.5t-169.5 44.5q-98 -1 -167.5 -45.5t-69.5 -130.5zM77 191v327q0 94 78 147t185 53t185.5 -53t78.5 -147v-327q0 -94 -78.5 -147.5t-185.5 -53.5t-185 53.5t-78 147.5z"/>
<glyph glyph-name="p" horiz-adv-x="602" unicode="p" d="M118 307h225q92 0 142 55.5t50 131.5t-51 133t-141 58h-225v-378zM118 0h-25v708h250q102 -1 159.5 -65.5t57.5 -149.5q0 -84 -57 -147t-159 -64h-226v-282z"/>
<glyph glyph-name="q" horiz-adv-x="682" unicode="q" d="M472 156l59 -77q48 39 48 112v327q0 84 -70.5 130t-167.5 46q-98 -1 -168 -45.5t-70 -130.5v-327q0 -82 71 -129.5t167 -47.5t174 50l-62 78zM581 -17l-52 61q-80 -54 -188 -54q-107 0 -185 53.5t-78 147.5v327q0 94 78 147t185 53q106 0 184.5 -53t78.5 -147v-327 q0 -44 -13.5 -72.5t-43.5 -59.5l53 -63z"/>
<glyph glyph-name="r" horiz-adv-x="611" unicode="r" d="M117 338h227q98 0 146.5 42.5t48.5 134.5q0 170 -188 170h-7h-227v-347zM545 0h-29l-238 316h-161v-316h-24v708h250q216 0 220 -192q0 -200 -219 -200h-38z"/>
<glyph glyph-name="s" horiz-adv-x="578" unicode="s" d="M86 546v-11q0 -119 208 -161q48 -9 85 -22t73 -35t55.5 -57t19.5 -80q0 -2 -0.5 -7t-0.5 -8q-6 -81 -75.5 -128t-162.5 -47q-70 0 -132.5 28.5t-100.5 85.5l23 10q34 -48 91 -74t121 -26q80 0 139.5 38.5t69.5 112.5q0 3 0.5 7t0.5 7q0 33 -12.5 59.5t-31 43.5t-48.5 31 t-56.5 21.5t-63.5 15.5q-36 7 -64 15t-60.5 23t-53.5 34t-35 48.5t-14 66.5v9q3 83 69.5 127.5t158.5 44.5q158 0 220 -109l-23 -9q-27 46 -80.5 70t-116.5 24q-82 0 -140 -36.5t-63 -111.5z"/>
<glyph glyph-name="t" horiz-adv-x="541" unicode="t" d="M519 708v-25h-236v-683h-25v683h-236v25h497z"/>
<glyph glyph-name="u" horiz-adv-x="673" unicode="u" d="M113 708v-514q0 -85 66 -132.5t157 -47.5q90 0 157 47.5t67 132.5v514h25v-514q0 -96 -74 -150t-175 -54q-100 0 -174 54t-74 150v514h25z"/>
<glyph glyph-name="v" horiz-adv-x="602" unicode="v" d="M554 709h28l-260 -709h-40l-266 708h29l255 -679h5z"/>
<glyph glyph-name="w" horiz-adv-x="927" unicode="w" d="M874 708h27l-207 -708h-41l-189 578l-190 -578h-39l-210 708h27l201 -673h5l189 567h33l190 -569h6z"/>
<glyph glyph-name="x" horiz-adv-x="547" unicode="x" d="M288 353l232 -353h-29l-217 336l-217 -336h-31l233 353l-232 355h28l219 -332l218 332h29z"/>
<glyph glyph-name="y" horiz-adv-x="550" unicode="y" d="M286 281v-281h-25v281l-242 427h30l225 -399l232 399h31z"/>
<glyph glyph-name="z" horiz-adv-x="549" unicode="z" d="M49 686v22h460l9 -13l-455 -673h441v-22h-465l-10 12l455 674h-435z"/>
<glyph glyph-name="braceleft" horiz-adv-x="263" unicode="{" d="M220 727h-22q-40 0 -49 -19.5t-9 -73.5v-146q1 -76 -19 -121t-45 -55q63 -27 63 -174v-147q0 -45 13 -65t52 -20h16v-21h-17q-49 0 -68 26.5t-19 78.5v145q0 150 -70 168v18q71 18 71 169v145q0 58 14.5 85.5t65.5 27.5h23v-21z"/>
<glyph glyph-name="bar" horiz-adv-x="180" unicode="|" d="M101 -161h-22v908h22v-908z"/>
<glyph glyph-name="braceright" horiz-adv-x="263" unicode="}" d="M43 747h23q48 0 64 -27.5t16 -84.5v-145q0 -151 71 -169v-18q-70 -18 -70 -168v-144q0 -106 -87 -106h-17v21h15q39 0 52.5 22t13.5 63v145q0 134 64 179q-25 10 -45 55t-19 120v144q0 22 -0.5 32.5t-3.5 24.5t-9 20.5t-17.5 11t-28.5 4.5h-22v20z"/>
<glyph glyph-name="asciitilde" horiz-adv-x="530" unicode="~" d="M443 339l10 -12q-16 -31 -42.5 -51t-59.5 -20q-32 0 -87.5 35t-80.5 35q-53 0 -93 -56q-2 2 -6 7t-5 6q38 65 105 65q32 0 84.5 -35t82.5 -35q51 0 92 61z"/>
<glyph glyph-name="uni00A0" horiz-adv-x="246" unicode=" "/>
<glyph glyph-name="exclamdown" horiz-adv-x="189" unicode="¡" d="M108 367v-572h-27v572h27zM126 490q0 -13 -9 -22t-22 -9t-22 9t-9 22t9 22t22 9t22 -9t9 -22z"/>
<glyph glyph-name="cent" horiz-adv-x="464" unicode="¢" d="M237 13v493q-60 -2 -103.5 -36.5t-42.5 -91.5v-236q0 -54 41.5 -87t104.5 -42zM401 461l-16 -12q-19 25 -52.5 41.5t-69.5 16.5h-5v-495q42 2 82 22.5t54 51.5l19 -9q-19 -38 -60 -60t-95 -27v-84h-21v84q-71 8 -119.5 47.5t-48.5 104.5v235q0 66 49.5 107t118.5 44v85 h21v-85q96 -6 143 -67z"/>
<glyph glyph-name="sterling" horiz-adv-x="495" unicode="£" d="M157 21v341h-104v20h104v148q0 34 9 65t29 59.5t57 46t88 17.5q64 0 112 -38l-15 -17q-42 34 -99 34q-78 0 -118 -49.5t-40 -114.5v-151h165v-20h-165v-341h245v-21h-372v21h104z"/>
<glyph glyph-name="currency" horiz-adv-x="618" unicode="¤" d="M97 353q0 -88 62 -149.5t148 -61.5q87 0 149.5 61.5t62.5 149.5q0 89 -62.5 151t-149.5 62q-86 0 -148 -62t-62 -151zM85 141l54 54q-62 68 -62 159t60 157l-52 52l13 16l52 -55q77 61 159 61q87 0 156 -59l51 53l15 -12l-54 -56q64 -70 64 -157q0 -88 -62 -156l57 -55 l-15 -14l-55 54q-80 -63 -157 -63q-79 0 -158 61l-52 -53z"/>
<glyph glyph-name="yen" horiz-adv-x="560" unicode="¥" d="M303 292h153l-5 -23h-162v-74h167l-4 -22h-163v-173h-23v173h-165l3 22h162v74h-163l4 23h146l-224 416h29l220 -410l226 410h29z"/>
<glyph glyph-name="brokenbar" horiz-adv-x="192" unicode="¦" d="M108 -127h-24v346h24v-346zM108 373h-24v333h24v-333z"/>
<glyph glyph-name="section" horiz-adv-x="468" unicode="§" d="M175 206l112 -55q38 20 68.5 53t30.5 69q0 38 -27.5 69t-62.5 50l-82 40q-49 -17 -86.5 -46.5t-37.5 -72.5q0 -27 16.5 -50.5t30.5 -33.5t38 -23zM55 -32l23 10q23 -43 63.5 -63t82.5 -21h4q59 0 98.5 27t39.5 92q0 22 -10 42t-23 34t-36 28.5t-40 22.5t-45 21t-40 19 q-50 27 -78.5 57.5t-28.5 75.5q0 79 120 132q-48 29 -72 58t-24 66q0 65 49.5 104t116.5 39q42 0 82.5 -17.5t58.5 -54.5l-20 -11q-34 60 -121 60q-55 0 -98.5 -33.5t-43.5 -86.5q0 -17 4.5 -31.5t17.5 -27.5l21 -21t31.5 -20t31 -16t36.5 -17q34 -16 56 -28t48 -32t39 -45 t13 -55q0 -39 -29 -75t-73 -61q41 -24 63.5 -57t22.5 -63q0 -78 -49 -113.5t-122 -35.5q-53 0 -100.5 25.5t-68.5 71.5z"/>
<glyph glyph-name="dieresis" horiz-adv-x="300" unicode="¨" d="M208 809q0 10 7 17t17 7t17 -7t7 -17t-7 -17t-17 -7t-17 7t-7 17zM28 809q0 10 7 17t17 7t17 -7t7 -17t-7 -17t-17 -7t-17 7t-7 17z"/>
<glyph glyph-name="copyright" horiz-adv-x="830" unicode="©" d="M568 514l-17 -11q-41 56 -136 56q-65 0 -111 -33t-46 -94v-153q0 -63 46 -96t111 -33q47 0 87 19t58 55q6 -2 11.5 -5t9.5 -5q-22 -41 -67.5 -63.5t-98.5 -22.5q-73 0 -126 40t-53 111v151q0 71 53 111t126 40q105 0 153 -67zM83 354q0 -139 96.5 -235.5t235.5 -96.5 t235.5 96.5t96.5 235.5t-96.5 235.5t-235.5 96.5t-235.5 -96.5t-96.5 -235.5zM60 354q0 146 104.5 250.5t250.5 104.5t250.5 -104.5t104.5 -250.5t-104.5 -250.5t-250.5 -104.5t-250.5 104.5t-104.5 250.5z"/>
<glyph glyph-name="ordfeminine" horiz-adv-x="372" unicode="ª" d="M275 403v140q-52 18 -95 18q-99 0 -100 -79q0 -40 25.5 -64.5t63.5 -25.5q51 0 106 11zM275 562v51q0 37 -28 55.5t-69 18.5q-45 0 -84 -31l-15 13q45 39 101 39q47 0 81.5 -24.5t34.5 -69.5v-223q-63 -19 -120 -19h-9q-46 1 -77 31.5t-31 78.5q1 98 123 98q49 0 93 -18z "/>
<glyph glyph-name="guillemotleft" horiz-adv-x="376" unicode="«" d="M170 295l122 181q12 -8 15 -11q2 -2 3 -2l-116 -168q46 -68 115 -168l-17 -11zM46 295l122 181q12 -8 15 -11q2 -2 3 -2l-114 -168q29 -43 63.5 -95.5t48.5 -72.5l-16 -11z"/>
<glyph glyph-name="logicalnot" horiz-adv-x="604" unicode="¬" d="M78 361v21h443v-195h-21v174h-422z"/>
<glyph glyph-name="uni00AD" horiz-adv-x="353" unicode="­" d="M307 281v-23h-228v23h228z"/>
<glyph glyph-name="registered" horiz-adv-x="830" unicode="®" d="M315 346h86q62 0 101 20.5t39 78.5q0 46 -33.5 69t-79.5 23h-113v-191zM295 158v398h136q62 0 96.5 -31.5t34.5 -79.5q0 -50 -34 -80.5t-86 -34.5l123 -172h-22l-125 170h-103v-170h-20zM84 354q0 -138 96.5 -234.5t234.5 -96.5t234.5 96.5t96.5 234.5t-96.5 234.5 t-234.5 96.5t-234.5 -96.5t-96.5 -234.5zM60 354q0 146 104.5 250.5t250.5 104.5t250.5 -104.5t104.5 -250.5t-104.5 -250.5t-250.5 -104.5t-250.5 104.5t-104.5 250.5z"/>
<glyph glyph-name="macron" horiz-adv-x="275" unicode="¯" d="M44 786v21h197v-21h-197z"/>
<glyph glyph-name="degree" horiz-adv-x="324" unicode="°" d="M162 528q34 0 57.5 24t23.5 59t-23.5 59t-57.5 24t-57.5 -24t-23.5 -59t23.5 -59t57.5 -24zM162 509q-42 0 -72 30t-30 73q0 42 30 71.5t72 29.5t72 -29.5t30 -71.5q0 -43 -30 -73t-72 -30z"/>
<glyph glyph-name="plusminus" horiz-adv-x="574" unicode="±" d="M487 132v-20h-401v20h401zM273 419v179h21v-179h195v-21h-195v-182h-21v182h-188v21h188z"/>
<glyph glyph-name="twosuperior" horiz-adv-x="404" unicode="²" d="M329 320v-19h-258l-6 16l196 205q46 46 46 85q0 13 -4 25q-31 67 -108 67q-68 0 -103 -50l-16 8q40 61 119 61q42 0 76.5 -19.5t49.5 -56.5l-1 1q7 -17 7 -35q0 -45 -51 -98l-181 -190h234z"/>
<glyph glyph-name="threesuperior" horiz-adv-x="388" unicode="³" d="M261 517q35 -11 51 -39.5t16 -62.5q0 -53 -41 -83.5t-96 -30.5h-10q-37 2 -70 19.5t-49 47.5l19 7q30 -51 102 -55h9q44 0 80 26t36 69q0 46 -26.5 69t-69.5 23h-9h-33v17h33q47 0 69 21q21 19 21 58q0 40 -20 63q-31 34 -83 34q-67 0 -100 -45l-14 10q41 53 114 53 q59 0 97 -39q24 -24 24 -73q0 -48 -24 -72q-6 -6 -26 -17z"/>
<glyph glyph-name="acute" horiz-adv-x="590" unicode="´" d="M345 862h35l-72 -103h-25z"/>
<glyph glyph-name="mu" horiz-adv-x="515" unicode="µ" d="M417 0v137q-19 -71 -69 -104t-111 -33q-111 0 -138 96l1 -307h-22v729h23v-328q0 -42 10.5 -78t42.5 -64.5t83 -28.5q77 0 126 55.5t49 156.5v287h24l3 -518h-22z"/>
<glyph glyph-name="paragraph" horiz-adv-x="557" unicode="¶" d="M268 -113v409q-108 0 -170 60t-62 141q0 85 60 148.5t167 63.5h212v-822h-21v804h-164v-804h-22z"/>
<glyph glyph-name="periodcentered" horiz-adv-x="230" unicode="·" d="M76 318q0 16 11.5 27.5t27.5 11.5t27.5 -11.5t11.5 -27.5t-11.5 -27.5t-27.5 -11.5t-27.5 11.5t-11.5 27.5z"/>
<glyph glyph-name="cedilla" horiz-adv-x="571" unicode="¸" d="M309 10l-44 -78q36 0 54.5 -16.5t18.5 -43.5q0 -9 -1 -14q-5 -26 -29 -44t-61 -18h-7q-30 1 -65 19l3 18q34 -18 62 -19h5q62 0 72 49q1 3 1 10q0 20 -16.5 32t-45.5 12q-12 0 -18 -1l52 94h19z"/>
<glyph glyph-name="onesuperior" horiz-adv-x="235" unicode="¹" d="M57 597l-15 13l86 98h27v-408h-21v387z"/>
<glyph glyph-name="ordmasculine" horiz-adv-x="406" unicode="º" d="M87 598v-122q0 -47 34.5 -69.5t81.5 -22.5t81.5 22.5t34.5 69.5v122q0 47 -34.5 69.5t-81.5 22.5t-81.5 -22.5t-34.5 -69.5zM203 365q-55 0 -95.5 28.5t-40.5 79.5v128q0 51 40.5 79.5t95.5 28.5t95.5 -28.5t40.5 -79.5v-128q0 -51 -40.5 -79.5t-95.5 -28.5z"/>
<glyph glyph-name="guillemotright" horiz-adv-x="375" unicode="»" d="M206 114l-18 13l116 168q-99 144 -115 168l17 11l122 -179zM206 295l-122 -181q-12 8 -15 11q-2 2 -3 2l116 168q-99 144 -115 168l17 11z"/>
<glyph glyph-name="onequarter" horiz-adv-x="646" unicode="¼" d="M544 390l-214 -268l214 1v267zM603 123v-17h-40v-106h-19v106h-223l-12 18l229 289h25v-290h40zM57 597l-15 13l86 98h27v-408h-21v387zM511 714l9 -6l-440 -719l-15 9l439 720z"/>
<glyph glyph-name="onehalf" horiz-adv-x="693" unicode="½" d="M642 19v-19h-258l-1 2l-5 14l196 200q46 46 46 85q0 13 -4 25q-31 67 -108 67q-66 0 -101 -50l-15 6l-3 2q40 61 119 61q42 0 76.5 -19.5t49.5 -56.5l-1 1q7 -17 7 -36q0 -54 -51 -97l-181 -185h234zM54 597l-15 13l86 98h27v-408h-21v387zM521 714l9 -6l-440 -719l-15 9 l439 720z"/>
<glyph glyph-name="threequarters" horiz-adv-x="709" unicode="¾" d="M603 390l-214 -268l214 1v267zM662 123v-17h-40v-106h-19v106h-223l-12 18l229 289h25v-290h40zM248 523q35 -11 51 -39.5t16 -62.5q0 -53 -41 -83.5t-96 -30.5h-10q-37 2 -70 19.5t-49 47.5l19 7q30 -51 102 -55h9q44 0 80 26t36 69q0 46 -26.5 69t-69.5 23h-9h-33v17 h33q47 0 69 21q21 19 21 51q0 31 -20 54q-31 34 -83 34q-67 0 -100 -45q-8 4 -14 10q41 53 114 53q59 0 97 -39q24 -24 24 -65q0 -40 -24 -64q-6 -6 -26 -17zM616 708l-439 -718l-14 9l438 719z"/>
<glyph glyph-name="questiondown" horiz-adv-x="446" unicode="¿" d="M401 -102l15 -15q-71 -69 -166 -69q-85 0 -147 49.5t-62 136.5q0 91 57.5 143.5t148.5 61.5q2 54 3 93.5t1.5 63.5t0.5 35h18l6 -210q-87 -6 -149 -55t-62 -128t55 -122t132 -43q79 0 149 59zM261 454q-12 0 -20.5 9t-8.5 22t8.5 21.5t20.5 8.5q13 0 22 -8.5t9 -21.5 t-9 -22t-22 -9z"/>
<glyph glyph-name="Agrave" d="M302 684h-4l-150 -406h304zM139 253l-94 -253h-27l262 708h40l262 -708h-27l-94 253h-322zM294 759l-72 103h35l62 -103h-25z" unicode="À"/>
<glyph glyph-name="Aacute" d="M302 684h-4l-150 -406h304zM139 253l-94 -253h-27l262 708h40l262 -708h-27l-94 253h-322zM338 862h35l-72 -103h-25z" unicode="Á"/>
<glyph glyph-name="Acircumflex" d="M302 684h-4l-150 -406h304zM139 253l-94 -253h-27l262 708h40l262 -708h-27l-94 253h-322zM400 755h-28l-72 79l-71 -79h-29l86 94h28z" unicode="Â"/>
<glyph glyph-name="Atilde" d="M302 684h-4l-150 -406h304zM139 253l-94 -253h-27l262 708h40l262 -708h-27l-94 253h-322zM211 788l-15 6q19 49 60 49q21 0 53 -24t46 -24q26 0 39 32l16 -6q-16 -48 -55 -48q-20 0 -51.5 24.5t-48.5 24.5q-29 0 -44 -34z" unicode="Ã"/>
<glyph glyph-name="Adieresis" d="M302 684h-4l-150 -406h304zM139 253l-94 -253h-27l262 708h40l262 -708h-27l-94 253h-322zM363 809q0 10 7 17t17 7t17 -7t7 -17t-7 -17t-17 -7t-17 7t-7 17zM183 809q0 10 7 17t17 7t17 -7t7 -17t-7 -17t-17 -7t-17 7t-7 17z" unicode="Ä"/>
<glyph glyph-name="Aring" d="M452 278l-150 406h-4l-150 -406h304zM246 766q0 -23 16 -39.5t38 -16.5q23 0 39 17t16 40t-16 40t-39 17q-24 0 -39 -15.5t-15 -42.5zM582 0h-27l-94 253h-322l-94 -253h-27l257 693q-23 8 -37.5 27.5t-14.5 46.5q0 37 22.5 57.5t55.5 20.5t54 -23.5t21 -55.5 q0 -24 -14 -44.5t-37 -28.5z" unicode="Å"/>
<glyph glyph-name="AE" horiz-adv-x="771" unicode="Æ" d="M373 686l-200 -410h220v411zM720 708v-24h-304v-328h273v-24h-273v-310h304v-22h-327v253h-231l-128 -253h-28l351 708h363z"/>
<glyph glyph-name="Ccedilla" horiz-adv-x="584" unicode="Ç" d="M326 15q63 0 118 23t83 66l22 -11q-28 -44 -81 -70.5t-116 -31.5l-34 -60q36 0 54.5 -16.5t18.5 -43.5q0 -9 -1 -14q-5 -26 -29 -44t-61 -18h-7q-30 1 -65 19l3 18q34 -18 62 -19h5q62 0 72 49q1 3 1 10q0 20 -16.5 32t-45.5 12q-12 0 -18 -1l42 75h-7q-100 0 -174 52.5 t-74 145.5v332q0 92 75 145t176 53q70 0 130 -26.5t90 -75.5l-22 -16q-27 44 -82.5 69t-118.5 25q-90 0 -156.5 -46t-66.5 -128v-332q0 -82 66.5 -127.5t156.5 -45.5z"/>
<glyph glyph-name="Egrave" horiz-adv-x="565" unicode="È" d="M118 683v-317h366v-27h-366v-314h396v-25h-421v708h421v-25h-396zM301 759l-72 103h35l62 -103h-25z"/>
<glyph glyph-name="Eacute" horiz-adv-x="565" unicode="É" d="M118 683v-317h366v-27h-366v-314h396v-25h-421v708h421v-25h-396zM345 862h35l-72 -103h-25z"/>
<glyph glyph-name="Ecircumflex" horiz-adv-x="565" unicode="Ê" d="M118 683v-317h366v-27h-366v-314h396v-25h-421v708h421v-25h-396zM407 755h-28l-72 79l-71 -79h-29l86 94h28z"/>
<glyph glyph-name="Edieresis" horiz-adv-x="565" unicode="Ë" d="M118 683v-317h366v-27h-366v-314h396v-25h-421v708h421v-25h-396zM370 809q0 10 7 17t17 7t17 -7t7 -17t-7 -17t-17 -7t-17 7t-7 17zM190 809q0 10 7 17t17 7t17 -7t7 -17t-7 -17t-17 -7t-17 7t-7 17z"/>
<glyph glyph-name="Igrave" horiz-adv-x="211" unicode="Ì" d="M118 708v-708h-25v708h25zM100 759l-72 103h35l62 -103h-25z"/>
<glyph glyph-name="Iacute" horiz-adv-x="211" unicode="Í" d="M118 708v-708h-25v708h25zM144 862h35l-72 -103h-25z"/>
<glyph glyph-name="Icircumflex" horiz-adv-x="211" unicode="Î" d="M118 708v-708h-25v708h25zM206 755h-28l-72 79l-71 -79h-29l86 94h28z"/>
<glyph glyph-name="Idieresis" horiz-adv-x="211" unicode="Ï" d="M118 708v-708h-25v708h25zM145 809q0 10 7 17t17 7t17 -7t7 -17t-7 -17t-17 -7t-17 7t-7 17zM15 809q0 10 7 17t17 7t17 -7t7 -17t-7 -17t-17 -7t-17 7t-7 17z"/>
<glyph glyph-name="Eth" horiz-adv-x="639" unicode="Ð" d="M119 25h194q91 0 157 45.5t66 128.5v309q0 83 -66 129t-157 46h-194v-321h145v-20h-145v-317zM94 362v346h219q101 0 174.5 -52.5t73.5 -147.5v-309q0 -94 -73.5 -146.5t-174.5 -52.5h-219v342h-63v20h63z"/>
<glyph glyph-name="Ntilde" horiz-adv-x="671" unicode="Ñ" d="M132 708l421 -684v684h25v-708h-43l-415 676l-1 -676h-26v708h39zM253 788l-15 6q19 49 60 49q21 0 53 -24t46 -24q26 0 39 32l16 -6q-16 -48 -55 -48q-20 0 -51.5 24.5t-48.5 24.5q-29 0 -44 -34z"/>
<glyph glyph-name="Ograve" horiz-adv-x="682" unicode="Ò" d="M102 518v-327q0 -84 70.5 -130t167.5 -46t168 46.5t71 129.5v327q0 87 -70.5 131.5t-169.5 44.5q-98 -1 -167.5 -45.5t-69.5 -130.5zM77 191v327q0 94 78 147t185 53t185.5 -53t78.5 -147v-327q0 -94 -78.5 -147.5t-185.5 -53.5t-185 53.5t-78 147.5zM333 758l-72 103h35 l62 -103h-25z"/>
<glyph glyph-name="Oacute" horiz-adv-x="682" unicode="Ó" d="M102 518v-327q0 -84 70.5 -130t167.5 -46t168 46.5t71 129.5v327q0 87 -70.5 131.5t-169.5 44.5q-98 -1 -167.5 -45.5t-69.5 -130.5zM77 191v327q0 94 78 147t185 53t185.5 -53t78.5 -147v-327q0 -94 -78.5 -147.5t-185.5 -53.5t-185 53.5t-78 147.5zM377 861h35 l-72 -103h-25z"/>
<glyph glyph-name="Ocircumflex" horiz-adv-x="682" unicode="Ô" d="M102 518v-327q0 -84 70.5 -130t167.5 -46t168 46.5t71 129.5v327q0 87 -70.5 131.5t-169.5 44.5q-98 -1 -167.5 -45.5t-69.5 -130.5zM77 191v327q0 94 78 147t185 53t185.5 -53t78.5 -147v-327q0 -94 -78.5 -147.5t-185.5 -53.5t-185 53.5t-78 147.5zM439 754h-28l-72 79 l-71 -79h-29l86 94h28z"/>
<glyph glyph-name="Otilde" horiz-adv-x="682" unicode="Õ" d="M102 518v-327q0 -84 70.5 -130t167.5 -46t168 46.5t71 129.5v327q0 87 -70.5 131.5t-169.5 44.5q-98 -1 -167.5 -45.5t-69.5 -130.5zM77 191v327q0 94 78 147t185 53t185.5 -53t78.5 -147v-327q0 -94 -78.5 -147.5t-185.5 -53.5t-185 53.5t-78 147.5zM250 787l-15 6 q19 49 60 49q21 0 53 -24t46 -24q26 0 39 32l16 -6q-16 -48 -55 -48q-20 0 -51.5 24.5t-48.5 24.5q-29 0 -44 -34z"/>
<glyph glyph-name="Odieresis" horiz-adv-x="682" unicode="Ö" d="M102 518v-327q0 -84 70.5 -130t167.5 -46t168 46.5t71 129.5v327q0 87 -70.5 131.5t-169.5 44.5q-98 -1 -167.5 -45.5t-69.5 -130.5zM77 191v327q0 94 78 147t185 53t185.5 -53t78.5 -147v-327q0 -94 -78.5 -147.5t-185.5 -53.5t-185 53.5t-78 147.5zM402 808q0 10 7 17 t17 7t17 -7t7 -17t-7 -17t-17 -7t-17 7t-7 17zM222 808q0 10 7 17t17 7t17 -7t7 -17t-7 -17t-17 -7t-17 7t-7 17z"/>
<glyph glyph-name="multiply" horiz-adv-x="494" unicode="×" d="M248 354l159 159l17 -16l-160 -159l157 -157l-16 -17l-157 157l-161 -161l-16 17l160 160l-163 164l17 16z"/>
<glyph glyph-name="Oslash" horiz-adv-x="681" unicode="Ø" d="M581 199v311q0 90 -108 151l-244 -620q69 -19 111 -19q96 0 168 47t73 130zM101 510v-311q0 -91 109 -152l244 622q-45 17 -105 17h-10q-98 -1 -168 -45.5t-70 -130.5zM77 199v311q0 94 78 147t185 53q67 0 123 -21l29 71l19 -7l-29 -71q122 -63 122 -172v-311 q0 -94 -78.5 -147.5t-185.5 -53.5q-47 0 -120 21l-30 -74l-19 5l29 76q-123 62 -123 173z"/>
<glyph glyph-name="Ugrave" horiz-adv-x="673" unicode="Ù" d="M113 708v-514q0 -85 66 -132.5t157 -47.5q90 0 157 47.5t67 132.5v514h25v-514q0 -96 -74 -150t-175 -54q-100 0 -174 54t-74 150v514h25zM331 759l-72 103h35l62 -103h-25z"/>
<glyph glyph-name="Uacute" horiz-adv-x="673" unicode="Ú" d="M113 708v-514q0 -85 66 -132.5t157 -47.5q90 0 157 47.5t67 132.5v514h25v-514q0 -96 -74 -150t-175 -54q-100 0 -174 54t-74 150v514h25zM375 862h35l-72 -103h-25z"/>
<glyph glyph-name="Ucircumflex" horiz-adv-x="673" unicode="Û" d="M113 708v-514q0 -85 66 -132.5t157 -47.5q90 0 157 47.5t67 132.5v514h25v-514q0 -96 -74 -150t-175 -54q-100 0 -174 54t-74 150v514h25zM437 755h-28l-72 79l-71 -79h-29l86 94h28z"/>
<glyph glyph-name="Udieresis" horiz-adv-x="673" unicode="Ü" d="M113 708v-514q0 -85 66 -132.5t157 -47.5q90 0 157 47.5t67 132.5v514h25v-514q0 -96 -74 -150t-175 -54q-100 0 -174 54t-74 150v514h25zM400 809q0 10 7 17t17 7t17 -7t7 -17t-7 -17t-17 -7t-17 7t-7 17zM220 809q0 10 7 17t17 7t17 -7t7 -17t-7 -17t-17 -7t-17 7 t-7 17z"/>
<glyph glyph-name="Yacute" horiz-adv-x="550" unicode="Ý" d="M286 281v-281h-25v281l-242 427h30l225 -399l232 399h31zM312 862h35l-72 -103h-25z"/>
<glyph glyph-name="Thorn" horiz-adv-x="604" unicode="Þ" d="M118 187h225q92 0 142 55.5t50 131.5t-51 133t-141 58h-225v-378zM118 0h-25v708h25v-120h225q102 0 159.5 -65t57.5 -150q0 -84 -57 -147t-159 -64h-226v-162z"/>
<glyph glyph-name="germandbls" horiz-adv-x="581" unicode="ß" d="M281 26h5q86 0 151 50t65 132q0 83 -53 125t-139 42h-3h-116v22h116q70 0 116.5 39.5t46.5 112.5q0 74 -53.5 110t-128.5 36q-71 0 -126.5 -41.5t-55.5 -110.5v-543h-24v543q0 80 61.5 127.5t144.5 47.5q84 0 145.5 -45t61.5 -124q0 -122 -103 -160q136 -41 136 -182 q0 -94 -72.5 -150.5t-168.5 -56.5h-5q-49 2 -103 24l1 26q60 -23 101 -24z"/>
<glyph glyph-name="agrave" d="M302 684h-4l-150 -406h304zM139 253l-94 -253h-27l262 708h40l262 -708h-27l-94 253h-322zM294 759l-72 103h35l62 -103h-25z" unicode="à"/>
<glyph glyph-name="aacute" d="M302 684h-4l-150 -406h304zM139 253l-94 -253h-27l262 708h40l262 -708h-27l-94 253h-322zM338 862h35l-72 -103h-25z" unicode="á"/>
<glyph glyph-name="acircumflex" d="M302 684h-4l-150 -406h304zM139 253l-94 -253h-27l262 708h40l262 -708h-27l-94 253h-322zM400 755h-28l-72 79l-71 -79h-29l86 94h28z" unicode="â"/>
<glyph glyph-name="atilde" d="M302 684h-4l-150 -406h304zM139 253l-94 -253h-27l262 708h40l262 -708h-27l-94 253h-322zM211 788l-15 6q19 49 60 49q21 0 53 -24t46 -24q26 0 39 32l16 -6q-16 -48 -55 -48q-20 0 -51.5 24.5t-48.5 24.5q-29 0 -44 -34z" unicode="ã"/>
<glyph glyph-name="adieresis" d="M302 684h-4l-150 -406h304zM139 253l-94 -253h-27l262 708h40l262 -708h-27l-94 253h-322zM363 809q0 10 7 17t17 7t17 -7t7 -17t-7 -17t-17 -7t-17 7t-7 17zM183 809q0 10 7 17t17 7t17 -7t7 -17t-7 -17t-17 -7t-17 7t-7 17z" unicode="ä"/>
<glyph glyph-name="aring" d="M452 278l-150 406h-4l-150 -406h304zM246 766q0 -23 16 -39.5t38 -16.5q23 0 39 17t16 40t-16 40t-39 17q-24 0 -39 -15.5t-15 -42.5zM582 0h-27l-94 253h-322l-94 -253h-27l257 693q-23 8 -37.5 27.5t-14.5 46.5q0 37 22.5 57.5t55.5 20.5t54 -23.5t21 -55.5 q0 -24 -14 -44.5t-37 -28.5z" unicode="å"/>
<glyph glyph-name="ae" horiz-adv-x="771" unicode="æ" d="M373 686l-200 -410h220v411zM720 708v-24h-304v-328h273v-24h-273v-310h304v-22h-327v253h-231l-128 -253h-28l351 708h363z"/>
<glyph glyph-name="ccedilla" horiz-adv-x="584" unicode="ç" d="M326 15q63 0 118 23t83 66l22 -11q-28 -44 -81 -70.5t-116 -31.5l-34 -60q36 0 54.5 -16.5t18.5 -43.5q0 -9 -1 -14q-5 -26 -29 -44t-61 -18h-7q-30 1 -65 19l3 18q34 -18 62 -19h5q62 0 72 49q1 3 1 10q0 20 -16.5 32t-45.5 12q-12 0 -18 -1l42 75h-7q-100 0 -174 52.5 t-74 145.5v332q0 92 75 145t176 53q70 0 130 -26.5t90 -75.5l-22 -16q-27 44 -82.5 69t-118.5 25q-90 0 -156.5 -46t-66.5 -128v-332q0 -82 66.5 -127.5t156.5 -45.5z"/>
<glyph glyph-name="egrave" horiz-adv-x="565" unicode="è" d="M118 683v-317h366v-27h-366v-314h396v-25h-421v708h421v-25h-396zM301 759l-72 103h35l62 -103h-25z"/>
<glyph glyph-name="eacute" horiz-adv-x="565" unicode="é" d="M118 683v-317h366v-27h-366v-314h396v-25h-421v708h421v-25h-396zM345 862h35l-72 -103h-25z"/>
<glyph glyph-name="ecircumflex" horiz-adv-x="565" unicode="ê" d="M118 683v-317h366v-27h-366v-314h396v-25h-421v708h421v-25h-396zM407 755h-28l-72 79l-71 -79h-29l86 94h28z"/>
<glyph glyph-name="edieresis" horiz-adv-x="565" unicode="ë" d="M118 683v-317h366v-27h-366v-314h396v-25h-421v708h421v-25h-396zM370 809q0 10 7 17t17 7t17 -7t7 -17t-7 -17t-17 -7t-17 7t-7 17zM190 809q0 10 7 17t17 7t17 -7t7 -17t-7 -17t-17 -7t-17 7t-7 17z"/>
<glyph glyph-name="igrave" horiz-adv-x="211" unicode="ì" d="M118 708v-708h-25v708h25zM100 759l-72 103h35l62 -103h-25z"/>
<glyph glyph-name="iacute" horiz-adv-x="211" unicode="í" d="M118 708v-708h-25v708h25zM144 862h35l-72 -103h-25z"/>
<glyph glyph-name="icircumflex" horiz-adv-x="211" unicode="î" d="M118 708v-708h-25v708h25zM206 755h-28l-72 79l-71 -79h-29l86 94h28z"/>
<glyph glyph-name="idieresis" horiz-adv-x="211" unicode="ï" d="M118 708v-708h-25v708h25zM145 809q0 10 7 17t17 7t17 -7t7 -17t-7 -17t-17 -7t-17 7t-7 17zM15 809q0 10 7 17t17 7t17 -7t7 -17t-7 -17t-17 -7t-17 7t-7 17z"/>
<glyph glyph-name="eth" horiz-adv-x="639" unicode="ð" d="M119 25h194q91 0 157 45.5t66 128.5v309q0 83 -66 129t-157 46h-194v-321h145v-20h-145v-317zM94 362v346h219q101 0 174.5 -52.5t73.5 -147.5v-309q0 -94 -73.5 -146.5t-174.5 -52.5h-219v342h-63v20h63z"/>
<glyph glyph-name="ntilde" horiz-adv-x="671" unicode="ñ" d="M132 708l421 -684v684h25v-708h-43l-415 676l-1 -676h-26v708h39zM253 788l-15 6q19 49 60 49q21 0 53 -24t46 -24q26 0 39 32l16 -6q-16 -48 -55 -48q-20 0 -51.5 24.5t-48.5 24.5q-29 0 -44 -34z"/>
<glyph glyph-name="ograve" horiz-adv-x="682" unicode="ò" d="M102 518v-327q0 -84 70.5 -130t167.5 -46t168 46.5t71 129.5v327q0 87 -70.5 131.5t-169.5 44.5q-98 -1 -167.5 -45.5t-69.5 -130.5zM77 191v327q0 94 78 147t185 53t185.5 -53t78.5 -147v-327q0 -94 -78.5 -147.5t-185.5 -53.5t-185 53.5t-78 147.5zM333 758l-72 103h35 l62 -103h-25z"/>
<glyph glyph-name="oacute" horiz-adv-x="682" unicode="ó" d="M102 518v-327q0 -84 70.5 -130t167.5 -46t168 46.5t71 129.5v327q0 87 -70.5 131.5t-169.5 44.5q-98 -1 -167.5 -45.5t-69.5 -130.5zM77 191v327q0 94 78 147t185 53t185.5 -53t78.5 -147v-327q0 -94 -78.5 -147.5t-185.5 -53.5t-185 53.5t-78 147.5zM377 861h35 l-72 -103h-25z"/>
<glyph glyph-name="ocircumflex" horiz-adv-x="682" unicode="ô" d="M102 518v-327q0 -84 70.5 -130t167.5 -46t168 46.5t71 129.5v327q0 87 -70.5 131.5t-169.5 44.5q-98 -1 -167.5 -45.5t-69.5 -130.5zM77 191v327q0 94 78 147t185 53t185.5 -53t78.5 -147v-327q0 -94 -78.5 -147.5t-185.5 -53.5t-185 53.5t-78 147.5zM439 754h-28l-72 79 l-71 -79h-29l86 94h28z"/>
<glyph glyph-name="otilde" horiz-adv-x="682" unicode="õ" d="M102 518v-327q0 -84 70.5 -130t167.5 -46t168 46.5t71 129.5v327q0 87 -70.5 131.5t-169.5 44.5q-98 -1 -167.5 -45.5t-69.5 -130.5zM77 191v327q0 94 78 147t185 53t185.5 -53t78.5 -147v-327q0 -94 -78.5 -147.5t-185.5 -53.5t-185 53.5t-78 147.5zM250 787l-15 6 q19 49 60 49q21 0 53 -24t46 -24q26 0 39 32l16 -6q-16 -48 -55 -48q-20 0 -51.5 24.5t-48.5 24.5q-29 0 -44 -34z"/>
<glyph glyph-name="odieresis" horiz-adv-x="682" unicode="ö" d="M102 518v-327q0 -84 70.5 -130t167.5 -46t168 46.5t71 129.5v327q0 87 -70.5 131.5t-169.5 44.5q-98 -1 -167.5 -45.5t-69.5 -130.5zM77 191v327q0 94 78 147t185 53t185.5 -53t78.5 -147v-327q0 -94 -78.5 -147.5t-185.5 -53.5t-185 53.5t-78 147.5zM402 808q0 10 7 17 t17 7t17 -7t7 -17t-7 -17t-17 -7t-17 7t-7 17zM222 808q0 10 7 17t17 7t17 -7t7 -17t-7 -17t-17 -7t-17 7t-7 17z"/>
<glyph glyph-name="divide" horiz-adv-x="494" unicode="÷" d="M248 354l159 159l17 -16l-160 -159l157 -157l-16 -17l-157 157l-161 -161l-16 17l160 160l-163 164l17 16z"/>
<glyph glyph-name="oslash" horiz-adv-x="681" unicode="ø" d="M581 199v311q0 90 -108 151l-244 -620q69 -19 111 -19q96 0 168 47t73 130zM101 510v-311q0 -91 109 -152l244 622q-45 17 -105 17h-10q-98 -1 -168 -45.5t-70 -130.5zM77 199v311q0 94 78 147t185 53q67 0 123 -21l29 71l19 -7l-29 -71q122 -63 122 -172v-311 q0 -94 -78.5 -147.5t-185.5 -53.5q-47 0 -120 21l-30 -74l-19 5l29 76q-123 62 -123 173z"/>
<glyph glyph-name="ugrave" horiz-adv-x="673" unicode="ù" d="M113 708v-514q0 -85 66 -132.5t157 -47.5q90 0 157 47.5t67 132.5v514h25v-514q0 -96 -74 -150t-175 -54q-100 0 -174 54t-74 150v514h25zM331 759l-72 103h35l62 -103h-25z"/>
<glyph glyph-name="uacute" horiz-adv-x="673" unicode="ú" d="M113 708v-514q0 -85 66 -132.5t157 -47.5q90 0 157 47.5t67 132.5v514h25v-514q0 -96 -74 -150t-175 -54q-100 0 -174 54t-74 150v514h25zM375 862h35l-72 -103h-25z"/>
<glyph glyph-name="ucircumflex" horiz-adv-x="673" unicode="û" d="M113 708v-514q0 -85 66 -132.5t157 -47.5q90 0 157 47.5t67 132.5v514h25v-514q0 -96 -74 -150t-175 -54q-100 0 -174 54t-74 150v514h25zM437 755h-28l-72 79l-71 -79h-29l86 94h28z"/>
<glyph glyph-name="udieresis" horiz-adv-x="673" unicode="ü" d="M113 708v-514q0 -85 66 -132.5t157 -47.5q90 0 157 47.5t67 132.5v514h25v-514q0 -96 -74 -150t-175 -54q-100 0 -174 54t-74 150v514h25zM400 809q0 10 7 17t17 7t17 -7t7 -17t-7 -17t-17 -7t-17 7t-7 17zM220 809q0 10 7 17t17 7t17 -7t7 -17t-7 -17t-17 -7t-17 7 t-7 17z"/>
<glyph glyph-name="yacute" horiz-adv-x="550" unicode="ý" d="M286 281v-281h-25v281l-242 427h30l225 -399l232 399h31zM312 862h35l-72 -103h-25z"/>
<glyph glyph-name="thorn" horiz-adv-x="604" unicode="þ" d="M118 187h225q92 0 142 55.5t50 131.5t-51 133t-141 58h-225v-378zM118 0h-25v708h25v-120h225q102 0 159.5 -65t57.5 -150q0 -84 -57 -147t-159 -64h-226v-162z"/>
<glyph glyph-name="OE" horiz-adv-x="929" unicode="Œ" d="M489 68v573q-84 43 -151 43h-4q-98 0 -167.5 -45.5t-69.5 -131.5v-302q0 -84 71 -135t166 -51q63 0 155 49zM878 685h-365v-320h334v-24h-334v-317h365v-24h-389v44q-97 -50 -158 -50h-3q-103 2 -179.5 60t-76.5 151v302q0 94 77.5 147.5t183.5 54.5q79 0 156 -51v50h389 v-23z"/>
<glyph glyph-name="oe" horiz-adv-x="929" unicode="œ" d="M489 68v573q-84 43 -151 43h-4q-98 0 -167.5 -45.5t-69.5 -131.5v-302q0 -84 71 -135t166 -51q63 0 155 49zM878 685h-365v-320h334v-24h-334v-317h365v-24h-389v44q-97 -50 -158 -50h-3q-103 2 -179.5 60t-76.5 151v302q0 94 77.5 147.5t183.5 54.5q79 0 156 -51v50h389 v-23z"/>
<glyph glyph-name="Scaron" horiz-adv-x="578" unicode="Š" d="M86 546v-11q0 -119 208 -161q48 -9 85 -22t73 -35t55.5 -57t19.5 -80q0 -2 -0.5 -7t-0.5 -8q-6 -81 -75.5 -128t-162.5 -47q-70 0 -132.5 28.5t-100.5 85.5l23 10q34 -48 91 -74t121 -26q80 0 139.5 38.5t69.5 112.5q0 3 0.5 7t0.5 7q0 33 -12.5 59.5t-31 43.5t-48.5 31 t-56.5 21.5t-63.5 15.5q-36 7 -64 15t-60.5 23t-53.5 34t-35 48.5t-14 66.5v9q3 83 69.5 127.5t158.5 44.5q158 0 220 -109l-23 -9q-27 46 -80.5 70t-116.5 24q-82 0 -140 -36.5t-63 -111.5zM275 760l-86 94h29l71 -79l72 79h28l-86 -94h-28z"/>
<glyph glyph-name="scaron" horiz-adv-x="578" unicode="š" d="M86 546v-11q0 -119 208 -161q48 -9 85 -22t73 -35t55.5 -57t19.5 -80q0 -2 -0.5 -7t-0.5 -8q-6 -81 -75.5 -128t-162.5 -47q-70 0 -132.5 28.5t-100.5 85.5l23 10q34 -48 91 -74t121 -26q80 0 139.5 38.5t69.5 112.5q0 3 0.5 7t0.5 7q0 33 -12.5 59.5t-31 43.5t-48.5 31 t-56.5 21.5t-63.5 15.5q-36 7 -64 15t-60.5 23t-53.5 34t-35 48.5t-14 66.5v9q3 83 69.5 127.5t158.5 44.5q158 0 220 -109l-23 -9q-27 46 -80.5 70t-116.5 24q-82 0 -140 -36.5t-63 -111.5zM275 760l-86 94h29l71 -79l72 79h28l-86 -94h-28z"/>
<glyph glyph-name="Ydieresis" horiz-adv-x="550" unicode="Ÿ" d="M286 281v-281h-25v281l-242 427h30l225 -399l232 399h31zM337 809q0 10 7 17t17 7t17 -7t7 -17t-7 -17t-17 -7t-17 7t-7 17zM157 809q0 10 7 17t17 7t17 -7t7 -17t-7 -17t-17 -7t-17 7t-7 17z"/>
<glyph glyph-name="circumflex" horiz-adv-x="280" unicode="ˆ" d="M241 755h-28l-72 79l-71 -79h-29l86 94h28z"/>
<glyph glyph-name="tilde" horiz-adv-x="271" unicode="˜" d="M60 788l-15 6q19 49 60 49q21 0 53 -24t46 -24q26 0 39 32l16 -6q-16 -48 -55 -48q-20 0 -51.5 24.5t-48.5 24.5q-29 0 -44 -34z"/>
<glyph glyph-name="uni03BC" horiz-adv-x="523" unicode="μ" d="M421 0v137q-19 -71 -69 -104t-111 -33q-111 0 -138 96l1 -307h-22v729h23v-328q0 -42 10.5 -78t42.5 -64.5t83 -28.5q77 0 126 55.5t49 156.5v287h24l3 -518h-22z"/>
<glyph glyph-name="pi" horiz-adv-x="543" unicode="π" d="M480 18l1 -19q-51 0 -64.5 19t-13.5 88v387h-242v-486h-21v486q-57 0 -111 -14l-3 19q39 16 110 16h371l-1 -21h-81v-387q0 -23 0.5 -33t3 -23.5t8.5 -18.5t16.5 -9t26.5 -4z"/>
<glyph glyph-name="uni0401" horiz-adv-x="565" unicode="Ё" d="M118 683v-317h366v-27h-366v-314h396v-25h-421v708h421v-25h-396zM370 809q0 10 7 17t17 7t17 -7t7 -17t-7 -17t-17 -7t-17 7t-7 17zM190 809q0 10 7 17t17 7t17 -7t7 -17t-7 -17t-17 -7t-17 7t-7 17z"/>
<glyph glyph-name="uni0410" d="M302 684h-4l-150 -406h304zM139 253l-94 -253h-27l262 708h40l262 -708h-27l-94 253h-322z" unicode="А"/>
<glyph glyph-name="uni0411" horiz-adv-x="619" unicode="Б" d="M118 369v-345h234h7q87 0 137 40t50 126q0 179 -194 179h-234zM522 685h-404v-292h242q211 0 211 -199v-5q-3 -189 -220 -189h-258v708h429v-23z"/>
<glyph glyph-name="uni0412" horiz-adv-x="627" unicode="В" d="M118 24h234h7q87 0 137 40t50 126q0 173 -191 173h-3h-234v-339zM118 387h234q73 0 117 37t44 111q0 72 -45 111t-116 39h-234v-298zM435 376l35 -12q53 -22 77 -70t24 -101q0 -193 -220 -193h-258v708h259q81 0 133 -45.5t52 -126.5q0 -101 -71 -143z"/>
<glyph glyph-name="uni0413" horiz-adv-x="515" unicode="Г" d="M493 683h-375v-683h-25v708h400v-25z"/>
<glyph glyph-name="uni0414" horiz-adv-x="677" unicode="Д" d="M235 682l-17 -260q-13 -188 -43.5 -282.5t-81.5 -113.5h453v656h-311zM572 26h67v-183h-26v157h-576v-157h-26v183h25q34 4 59.5 27.5t41.5 58t28 94t18 118.5t12 148l16 236h361v-682z"/>
<glyph glyph-name="uni0415" horiz-adv-x="565" unicode="Е" d="M118 683v-317h366v-27h-366v-314h396v-25h-421v708h421v-25h-396z"/>
<glyph glyph-name="uni0416" horiz-adv-x="863" unicode="Ж" d="M542 372l292 -372h-34l-276 352l-80 -89v-263h-25v263l-80 89l-276 -352h-34l292 372l-303 336l38 -1l363 -408v409h25v-409l363 408l38 1z"/>
<glyph glyph-name="uni0417" horiz-adv-x="533" unicode="З" d="M257 718q82 0 133.5 -47t51.5 -135q0 -57 -22.5 -92.5t-86.5 -67.5q87 -28 115 -71.5t28 -108.5v-7q-2 -104 -61.5 -151.5t-158.5 -47.5q-150 0 -223 102l21 13q70 -91 203 -91h6q86 0 137 44t51 132q0 175 -194 175h-87v21h87q73 0 117 37.5t44 111.5q0 78 -45 119 t-116 41q-120 0 -173 -74l-20 10q58 87 193 87z"/>
<glyph glyph-name="uni0418" horiz-adv-x="687" unicode="И" d="M594 0h-25v623l1 53h-1l-36 -54l-401 -622h-39v708h25v-615l-1 -69h1l43 66l399 618h34v-708z"/>
<glyph glyph-name="uni0419" horiz-adv-x="687" unicode="Й" d="M594 0h-25v624l1 52h-1l-34 -52l-403 -624h-39v708h25v-597l-1 -87h1l52 80l389 604h35v-708zM469 921h25q-9 -58 -48.5 -94.5t-100.5 -36.5t-100.5 36.5t-48.5 94.5h25q23 -106 124 -106t124 106z"/>
<glyph glyph-name="uni041A" horiz-adv-x="591" unicode="К" d="M118 708v-430l419 430h32l-327 -341l327 -367h-29l-316 349l-106 -106v-243h-25v708h25z"/>
<glyph glyph-name="uni041B" horiz-adv-x="660" unicode="Л" d="M567 0h-25v683h-309l-20 -282q-3 -49 -6 -80.5t-10 -78.5t-16 -77t-24.5 -64.5t-35.5 -54t-49.5 -33t-65.5 -13.5v25q41 0 72 22.5t49.5 56t31.5 86.5t19 100.5t10 112.5l22 305h357v-708z"/>
<glyph glyph-name="uni041C" horiz-adv-x="797" unicode="М" d="M382 112l-255 571l-9 -1v-682h-25v708h53l253 -573l252 573h53v-708h-25v690h-9l-254 -578h-34z"/>
<glyph glyph-name="uni041D" horiz-adv-x="683" unicode="Н" d="M118 341v-341h-25v708h25v-342h447v342h25v-708h-25v341h-447z"/>
<glyph glyph-name="uni041E" horiz-adv-x="682" unicode="О" d="M102 518v-327q0 -84 70.5 -130t167.5 -46t168 46.5t71 129.5v327q0 87 -70.5 131.5t-169.5 44.5q-98 -1 -167.5 -45.5t-69.5 -130.5zM77 191v327q0 94 78 147t185 53t185.5 -53t78.5 -147v-327q0 -94 -78.5 -147.5t-185.5 -53.5t-185 53.5t-78 147.5z"/>
<glyph glyph-name="uni041F" horiz-adv-x="675" unicode="П" d="M118 683v-683h-25v708h489v-708h-25v683h-439z"/>
<glyph glyph-name="uni0420" horiz-adv-x="602" unicode="Р" d="M118 307h225q92 0 142 55.5t50 131.5t-51 133t-141 58h-225v-378zM118 0h-25v708h250q102 -1 159.5 -65.5t57.5 -149.5q0 -84 -57 -147t-159 -64h-226v-282z"/>
<glyph glyph-name="uni0421" horiz-adv-x="584" unicode="С" d="M78 188v332q0 92 75 145t176 53q70 0 130 -26.5t90 -75.5l-22 -16q-27 44 -82.5 69t-118.5 25q-89 0 -156 -48.5t-67 -130.5v-327q0 -82 66.5 -127.5t156.5 -45.5q63 0 118 23t83 66l22 -11q-30 -49 -91.5 -76t-131.5 -27q-100 0 -174 52.5t-74 145.5z"/>
<glyph glyph-name="uni0422" horiz-adv-x="541" unicode="Т" d="M519 708v-25h-236v-683h-25v683h-236v25h497z"/>
<glyph glyph-name="uni0423" horiz-adv-x="506" unicode="У" d="M175 0h-29l99 216l-242 492h32l173 -357l51 -104h1l43 97l164 364h29z"/>
<glyph glyph-name="uni0424" horiz-adv-x="725" unicode="Ф" d="M375 597v-486q265 0 265 144v198q0 144 -265 144zM350 111v486q-265 0 -265 -144v-198q0 -144 265 -144zM375 708v-86q61 0 108.5 -7t91 -24.5t67 -52t23.5 -85.5v-198q0 -51 -23.5 -85.5t-67 -52t-91 -24.5t-108.5 -7v-86h-25v86q-61 0 -108.5 7t-91 24.5t-67 52 t-23.5 85.5v198q0 51 23.5 85.5t67 52t91 24.5t108.5 7v86h25z"/>
<glyph glyph-name="uni0425" horiz-adv-x="547" unicode="Х" d="M291 355l229 -355h-29l-217 336l-217 -336h-31l233 353l-232 355h28l219 -332l218 332h29z"/>
<glyph glyph-name="uni0426" horiz-adv-x="679" unicode="Ц" d="M574 26h67v-183h-26v157h-523v708h25v-682h431v682h26v-682z"/>
<glyph glyph-name="uni0427" horiz-adv-x="604" unicode="Ч" d="M511 0h-25v342q-90 -99 -209 -99q-95 0 -157 53t-62 153v259h25v-259q0 -87 57.5 -134t136.5 -47q68 0 116.5 27t92.5 79v334h25v-708z"/>
<glyph glyph-name="uni0428" horiz-adv-x="881" unicode="Ш" d="M788 0h-695v708h25v-683h310v683h25v-683h310v683h25v-708z"/>
<glyph glyph-name="uni0429" horiz-adv-x="892" unicode="Щ" d="M787 26h66v-183h-25v157h-737v708h25v-682h310v682h25v-682h310v682h26v-682z"/>
<glyph glyph-name="uni042A" horiz-adv-x="677" unicode="Ъ" d="M185 382v-358h228q194 0 194 166q0 192 -194 192h-228zM185 406h236q105 0 158 -51t53 -160v-6q-3 -189 -220 -189h-252v684h-136v24h161v-302z"/>
<glyph glyph-name="uni042B" horiz-adv-x="810" unicode="Ы" d="M118 382v-358h228q194 0 194 166q0 192 -194 192h-228zM717 0h-25v708h25v-708zM118 406h236q105 0 158 -51t53 -160v-6q-3 -189 -220 -189h-252v708h25v-302z"/>
<glyph glyph-name="uni042C" horiz-adv-x="610" unicode="Ь" d="M118 382v-358h228q194 0 194 166q0 192 -194 192h-228zM118 406h236q105 0 158 -51t53 -160v-6q-3 -189 -220 -189h-252v708h25v-302z"/>
<glyph glyph-name="uni042D" horiz-adv-x="595" unicode="Э" d="M267 718q106 0 178 -52.5t72 -145.5v-332q0 -93 -74 -145.5t-174 -52.5q-70 0 -131.5 27t-91.5 76l22 11q28 -43 83 -66t118 -23q90 0 156.5 45.5t66.5 127.5v153h-338v27h338v152q0 82 -66.5 128t-156.5 46q-63 0 -119 -25t-83 -69l-21 16q30 49 90.5 75.5t130.5 26.5z "/>
<glyph glyph-name="uni042E" horiz-adv-x="919" unicode="Ю" d="M581 694q-98 -1 -167.5 -45.5t-69.5 -130.5v-326q0 -84 70.5 -130t167.5 -46t168 46.5t71 129.5v326q0 87 -70.5 131.5t-169.5 44.5zM582 718q69 0 127.5 -20.5t97.5 -67.5t39 -112v-326q0 -96 -78 -148.5t-186 -52.5t-185.5 52.5t-77.5 148.5v152h-203v-344h-25v708h25 v-339h203v149q0 96 77.5 148t185.5 52z"/>
<glyph glyph-name="uni042F" horiz-adv-x="621" unicode="Я" d="M503 684h-222q-101 0 -150.5 -53.5t-49.5 -132.5q0 -55 34.5 -94t81 -55t97.5 -16h211zM528 0h-25l2 309h-168l-268 -309h-32l268 309q-108 0 -178.5 45.5t-70.5 143.5q0 91 58 150.5t175 59.5h239v-708z"/>
<glyph glyph-name="uni0430" d="M302 684h-4l-150 -406h304zM139 253l-94 -253h-27l262 708h40l262 -708h-27l-94 253h-322z" unicode="а"/>
<glyph glyph-name="uni0431" horiz-adv-x="619" unicode="б" d="M118 369v-345h234h7q87 0 137 40t50 126q0 179 -194 179h-234zM522 685h-404v-292h242q211 0 211 -199v-5q-3 -189 -220 -189h-258v708h429v-23z"/>
<glyph glyph-name="uni0432" horiz-adv-x="627" unicode="в" d="M118 24h234h7q87 0 137 40t50 126q0 173 -191 173h-3h-234v-339zM118 387h234q73 0 117 37t44 111q0 72 -45 111t-116 39h-234v-298zM435 376l35 -12q53 -22 77 -70t24 -101q0 -193 -220 -193h-258v708h259q81 0 133 -45.5t52 -126.5q0 -101 -71 -143z"/>
<glyph glyph-name="uni0433" horiz-adv-x="515" unicode="г" d="M493 683h-375v-683h-25v708h400v-25z"/>
<glyph glyph-name="uni0434" horiz-adv-x="670" unicode="д" d="M113 26h445l-224 658zM584 26h67v-183h-26v157h-580v-157h-26v183h67l230 682h37z"/>
<glyph glyph-name="uni0435" horiz-adv-x="565" unicode="е" d="M118 683v-317h366v-27h-366v-314h396v-25h-421v708h421v-25h-396z"/>
<glyph glyph-name="uni0436" horiz-adv-x="863" unicode="ж" d="M542 372l292 -372h-34l-276 352l-80 -89v-263h-25v263l-80 89l-276 -352h-34l292 372l-303 336l38 -1l363 -408v409h25v-409l363 408l38 1z"/>
<glyph glyph-name="uni0437" horiz-adv-x="533" unicode="з" d="M257 718q82 0 133.5 -47t51.5 -135q0 -57 -22.5 -92.5t-86.5 -67.5q87 -28 115 -71.5t28 -108.5v-7q-2 -104 -61.5 -151.5t-158.5 -47.5q-150 0 -223 102l21 13q70 -91 203 -91h6q86 0 137 44t51 132q0 175 -194 175h-87v21h87q73 0 117 37.5t44 111.5q0 78 -45 119 t-116 41q-120 0 -173 -74l-20 10q58 87 193 87z"/>
<glyph glyph-name="uni0438" horiz-adv-x="687" unicode="и" d="M594 0h-25v623l1 53h-1l-36 -54l-401 -622h-39v708h25v-615l-1 -69h1l43 66l399 618h34v-708z"/>
<glyph glyph-name="uni0439" horiz-adv-x="687" unicode="й" d="M594 0h-25v624l1 52h-1l-34 -52l-403 -624h-39v708h25v-597l-1 -87h1l52 80l389 604h35v-708zM469 921h25q-9 -58 -48.5 -94.5t-100.5 -36.5t-100.5 36.5t-48.5 94.5h25q23 -106 124 -106t124 106z"/>
<glyph glyph-name="uni043A" horiz-adv-x="591" unicode="к" d="M118 708v-430l419 430h32l-327 -341l327 -367h-29l-316 349l-106 -106v-243h-25v708h25z"/>
<glyph glyph-name="uni043B" horiz-adv-x="588" unicode="л" d="M569 0h-28l-194 553l-52 142h-5l-51 -146l-193 -549h-27l251 708h47z"/>
<glyph glyph-name="uni043C" horiz-adv-x="797" unicode="м" d="M382 112l-255 571l-9 -1v-682h-25v708h53l253 -573l252 573h53v-708h-25v690h-9l-254 -578h-34z"/>
<glyph glyph-name="uni043D" horiz-adv-x="683" unicode="н" d="M118 341v-341h-25v708h25v-342h447v342h25v-708h-25v341h-447z"/>
<glyph glyph-name="uni043E" horiz-adv-x="682" unicode="о" d="M102 518v-327q0 -84 70.5 -130t167.5 -46t168 46.5t71 129.5v327q0 87 -70.5 131.5t-169.5 44.5q-98 -1 -167.5 -45.5t-69.5 -130.5zM77 191v327q0 94 78 147t185 53t185.5 -53t78.5 -147v-327q0 -94 -78.5 -147.5t-185.5 -53.5t-185 53.5t-78 147.5z"/>
<glyph glyph-name="uni043F" horiz-adv-x="675" unicode="п" d="M118 683v-683h-25v708h489v-708h-25v683h-439z"/>
<glyph glyph-name="uni0440" horiz-adv-x="602" unicode="р" d="M118 307h225q92 0 142 55.5t50 131.5t-51 133t-141 58h-225v-378zM118 0h-25v708h250q102 -1 159.5 -65.5t57.5 -149.5q0 -84 -57 -147t-159 -64h-226v-282z"/>
<glyph glyph-name="uni0441" horiz-adv-x="584" unicode="с" d="M78 188v332q0 92 75 145t176 53q70 0 130 -26.5t90 -75.5l-22 -16q-27 44 -82.5 69t-118.5 25q-89 0 -156 -48.5t-67 -130.5v-327q0 -82 66.5 -127.5t156.5 -45.5q63 0 118 23t83 66l22 -11q-30 -49 -91.5 -76t-131.5 -27q-100 0 -174 52.5t-74 145.5z"/>
<glyph glyph-name="uni0442" horiz-adv-x="541" unicode="т" d="M519 708v-25h-236v-683h-25v683h-236v25h497z"/>
<glyph glyph-name="uni0443" horiz-adv-x="506" unicode="у" d="M175 0h-29l99 216l-242 492h32l173 -357l51 -104h1l43 97l164 364h29z"/>
<glyph glyph-name="uni0444" horiz-adv-x="725" unicode="ф" d="M375 597v-486q265 0 265 144v198q0 144 -265 144zM350 111v486q-265 0 -265 -144v-198q0 -144 265 -144zM375 708v-86q61 0 108.5 -7t91 -24.5t67 -52t23.5 -85.5v-198q0 -51 -23.5 -85.5t-67 -52t-91 -24.5t-108.5 -7v-86h-25v86q-61 0 -108.5 7t-91 24.5t-67 52 t-23.5 85.5v198q0 51 23.5 85.5t67 52t91 24.5t108.5 7v86h25z"/>
<glyph glyph-name="uni0445" horiz-adv-x="547" unicode="х" d="M291 355l229 -355h-29l-217 336l-217 -336h-31l233 353l-232 355h28l219 -332l218 332h29z"/>
<glyph glyph-name="uni0446" horiz-adv-x="679" unicode="ц" d="M574 26h67v-183h-26v157h-523v708h25v-682h431v682h26v-682z"/>
<glyph glyph-name="uni0447" horiz-adv-x="604" unicode="ч" d="M511 0h-25v342q-90 -99 -209 -99q-95 0 -157 53t-62 153v259h25v-259q0 -87 57.5 -134t136.5 -47q68 0 116.5 27t92.5 79v334h25v-708z"/>
<glyph glyph-name="uni0448" horiz-adv-x="881" unicode="ш" d="M788 0h-695v708h25v-683h310v683h25v-683h310v683h25v-708z"/>
<glyph glyph-name="uni0449" horiz-adv-x="892" unicode="щ" d="M787 26h66v-183h-25v157h-737v708h25v-682h310v682h25v-682h310v682h26v-682z"/>
<glyph glyph-name="uni044A" horiz-adv-x="677" unicode="ъ" d="M185 382v-358h228q194 0 194 166q0 192 -194 192h-228zM185 406h236q105 0 158 -51t53 -160v-6q-3 -189 -220 -189h-252v684h-136v24h161v-302z"/>
<glyph glyph-name="uni044B" horiz-adv-x="810" unicode="ы" d="M118 382v-358h228q194 0 194 166q0 192 -194 192h-228zM717 0h-25v708h25v-708zM118 406h236q105 0 158 -51t53 -160v-6q-3 -189 -220 -189h-252v708h25v-302z"/>
<glyph glyph-name="uni044C" horiz-adv-x="610" unicode="ь" d="M118 382v-358h228q194 0 194 166q0 192 -194 192h-228zM118 406h236q105 0 158 -51t53 -160v-6q-3 -189 -220 -189h-252v708h25v-302z"/>
<glyph glyph-name="uni044D" horiz-adv-x="595" unicode="э" d="M267 718q106 0 178 -52.5t72 -145.5v-332q0 -93 -74 -145.5t-174 -52.5q-70 0 -131.5 27t-91.5 76l22 11q28 -43 83 -66t118 -23q90 0 156.5 45.5t66.5 127.5v153h-338v27h338v152q0 82 -66.5 128t-156.5 46q-63 0 -119 -25t-83 -69l-21 16q30 49 90.5 75.5t130.5 26.5z "/>
<glyph glyph-name="uni044E" horiz-adv-x="919" unicode="ю" d="M581 694q-98 -1 -167.5 -45.5t-69.5 -130.5v-326q0 -84 70.5 -130t167.5 -46t168 46.5t71 129.5v326q0 87 -70.5 131.5t-169.5 44.5zM582 718q69 0 127.5 -20.5t97.5 -67.5t39 -112v-326q0 -96 -78 -148.5t-186 -52.5t-185.5 52.5t-77.5 148.5v152h-203v-344h-25v708h25 v-339h203v149q0 96 77.5 148t185.5 52z"/>
<glyph glyph-name="uni044F" horiz-adv-x="621" unicode="я" d="M503 684h-222q-101 0 -150.5 -53.5t-49.5 -132.5q0 -55 34.5 -94t81 -55t97.5 -16h211zM528 0h-25l2 309h-168l-268 -309h-32l268 309q-108 0 -178.5 45.5t-70.5 143.5q0 91 58 150.5t175 59.5h239v-708z"/>
<glyph glyph-name="uni0451" horiz-adv-x="565" unicode="ё" d="M118 683v-317h366v-27h-366v-314h396v-25h-421v708h421v-25h-396zM370 809q0 10 7 17t17 7t17 -7t7 -17t-7 -17t-17 -7t-17 7t-7 17zM190 809q0 10 7 17t17 7t17 -7t7 -17t-7 -17t-17 -7t-17 7t-7 17z"/>
<glyph glyph-name="endash" horiz-adv-x="582" unicode="–" d="M506 311v-23h-430v23h430z"/>
<glyph glyph-name="emdash" horiz-adv-x="1014" unicode="—" d="M938 311v-23h-862v23h862z"/>
<glyph glyph-name="quoteleft" horiz-adv-x="201" unicode="‘" d="M65 532l55 176h25l-45 -176h-35z"/>
<glyph glyph-name="quotesinglbase" horiz-adv-x="187" unicode="‚" d="M116 33l-67 -154h-23l52 154h38z"/>
<glyph glyph-name="quotedblleft" horiz-adv-x="314" unicode="“" d="M212 532h-36q11 33 31 92t29 85h23zM101 532h-36q11 33 31 92t29 85h23z"/>
<glyph glyph-name="quotedblright" horiz-adv-x="306" unicode="”" d="M217 708h35q-8 -28 -26 -90l-27 -93h-21zM105 708h35q-8 -28 -26 -90l-27 -93h-21z"/>
<glyph glyph-name="dagger" horiz-adv-x="481" unicode="†" d="M37 486v21h191v202h22v-202h194v-21h-194v-600h-22v600h-191z"/>
<glyph glyph-name="daggerdbl" horiz-adv-x="552" unicode="‡" d="M73 87v20h192v389h-192v22h192v191h22v-191h192v-22h-192v-389h192v-20h-192v-196h-22v196h-192z"/>
<glyph glyph-name="ellipsis" horiz-adv-x="609" unicode="…" d="M77 29q0 13 9 22t22 9t22 -9t9 -22t-9 -22t-22 -9t-22 9t-9 22zM271 30q0 13 9 22t22 9t22 -9t9 -22t-9 -22t-22 -9t-22 9t-9 22zM470 32q0 13 9 22t22 9t22 -9t9 -22t-9 -22t-22 -9t-22 9t-9 22z"/>
<glyph glyph-name="perthousand" horiz-adv-x="1023" unicode="‰" d="M953 172q0 155 -112 155q-110 0 -110 -152q0 -82 27 -118.5t84 -36.5q111 0 111 152zM638 172q0 155 -112 155q-110 0 -110 -152q0 -82 27 -118.5t84 -36.5q111 0 111 152zM981 173q0 -83 -38.5 -131.5t-99.5 -48.5q-66 0 -102 47t-36 135q0 87 38 133t100 46 q65 0 101.5 -47.5t36.5 -133.5zM666 173q0 -83 -38.5 -131.5t-99.5 -48.5q-66 0 -102 47t-36 135q0 87 38 133t100 46q65 0 101.5 -47.5t36.5 -133.5zM296 525q0 155 -111 155q-108 0 -108 -153q0 -82 26 -118.5t83 -36.5q110 0 110 153zM324 525q0 -83 -38.5 -131.5 t-99.5 -48.5q-66 0 -102 47t-36 135q0 85 38 132t100 47q65 0 101.5 -47.5t36.5 -133.5zM614 731l-491 -779q-5 2 -11.5 7t-9.5 6l492 778z"/>
<glyph glyph-name="guilsinglleft" horiz-adv-x="254" unicode="‹" d="M46 295l122 181l6 -2q5 -3 9.5 -5.5t4.5 -3.5q0 -3 -114 -170q46 -68 115 -168l-21 -11z"/>
<glyph glyph-name="guilsinglright" horiz-adv-x="255" unicode="›" d="M208 295l-122 -181l-5 2q-5 3 -9.5 5.5t-4.5 3.5q0 3 114 170q-99 144 -115 168l20 11z"/>
<glyph glyph-name="fraction" horiz-adv-x="493" unicode="⁄" d="M476 708l-440 -719l-19 9l438 720z"/>
<glyph glyph-name="Euro" horiz-adv-x="596" unicode="€" d="M107 411v106q0 94 68.5 147.5t160.5 53.5q63 0 118 -27t86 -77l-21 -12q-26 44 -77 68.5t-106 24.5q-84 0 -144.5 -46.5t-60.5 -131.5v-106h271l-5 -22h-266v-82h274l-5 -21h-269v-96q0 -83 60 -130t142 -47q57 0 107 24t81 69l19 -12q-31 -50 -87 -77t-120 -27 q-91 0 -158.5 53t-67.5 147v96h-61l4 21h57v82h-57l5 22h52z"/>
<glyph glyph-name="trademark" horiz-adv-x="824" unicode="™" d="M416 694v-342h-17v356h32l139 -299q45 100 77 167.5t44.5 94t17.5 37.5h32v-356h-18l1 345h-3l-139 -299h-24l-138 296h-4zM187 352h-18v341h-130v15h278v-15h-130v-341z"/>
<glyph glyph-name="partialdiff" horiz-adv-x="502" unicode="∂" d="M214 22h1q75 0 131 79t58 187q-14 44 -61.5 84t-104.5 40q-67 0 -116 -60.5t-49 -146.5q0 -82 39.5 -132.5t101.5 -50.5zM97 679l-9 20q59 39 133 39q99 0 159 -91t60 -235q0 -70 -9 -131q-21 -131 -75.5 -207.5t-142.5 -76.5q-76 0 -120 61t-44 145q0 102 56.5 168 t131.5 66q58 0 107 -34t65 -82q8 37 8 99q-1 122 -53 207.5t-148 85.5q-67 0 -119 -34z"/>
<glyph glyph-name="product" horiz-adv-x="625" unicode="∏" d="M494 -53h-23v739h-315v-739h-24v739h-102v22h566v-22h-102v-739z"/>
<glyph glyph-name="summation" horiz-adv-x="523" unicode="∑" d="M38 -52l271 359q-42 60 -129.5 189t-129.5 189v23h415v-22h-385q60 -88 259 -375l-273 -364h415v-21h-443v22z"/>
<glyph glyph-name="minus" horiz-adv-x="632" unicode="−" d="M554 318v-22h-476v22h476z"/>
<glyph glyph-name="radical" horiz-adv-x="505" unicode="√" d="M251 -137l-150 469l-72 -26q-2 5 -5 11l-4 8l96 35l145 -457l5 1l190 916h24l-202 -957h-27z"/>
<glyph glyph-name="infinity" horiz-adv-x="744" unicode="∞" d="M547 407h-1q-58 0 -137 -86l-28 -29q62 -66 95.5 -91.5t71.5 -25.5q49 0 79 34.5t30 79.5q0 55 -31 86.5t-79 31.5zM199 175h1q57 0 140 90l22 22q-29 35 -50 56t-55 42.5t-65 21.5q-48 0 -77.5 -35t-29.5 -84q1 -48 32.5 -80.5t81.5 -32.5zM679 293v-1q0 -60 -40 -98.5 t-94 -38.5q-37 0 -76.5 28t-96.5 90q-35 -39 -56 -59t-55.5 -39.5t-66.5 -19.5q-53 0 -91 39.5t-38 94.5q0 59 36.5 98.5t94.5 39.5q31 0 65 -19.5t55.5 -40t56.5 -58.5l20 23v-1q28 31 46.5 48t49.5 33t63 16q56 -1 91.5 -38.5t35.5 -96.5z"/>
<glyph glyph-name="approxequal" horiz-adv-x="529" unicode="≈" d="M437 240l13 -10q-35 -45 -86 -45q-32 0 -99 37t-98 37q-45 0 -75 -41l-14 10q39 53 92 53q38 0 85 -28l16 -9q65 -37 97 -37q42 0 69 33zM437 371l14 -10q-35 -45 -86 -45q-33 0 -100 37t-98 37q-45 0 -75 -41l-14 10q38 52 91 52q40 0 86 -27l16 -9q65 -37 97 -37 q42 0 69 33z"/>
<glyph glyph-name="notequal" horiz-adv-x="557" unicode="≠" d="M482 385v-19h-161l-72 -160h233v-19h-241l-50 -107l-15 7l46 100h-147v19h155l72 160h-227v19h235l47 106l16 -6l-46 -100h155z"/>
<glyph glyph-name="lessequal" horiz-adv-x="485" unicode="≤" d="M69 94h345v-20h-345v20zM96 367l305 -167v-23q-54 30 -159 88.5t-159 88.5v26l318 181v-24z"/>
<glyph glyph-name="greaterequal" horiz-adv-x="487" unicode="≥" d="M71 94h345v-19h-345v19zM84 537v24q55 -32 160 -91t159 -90v-26l-319 -177v23l305 167q-19 10 -133 74t-172 96z"/>
<glyph glyph-name="lozenge" horiz-adv-x="509" unicode="◊" d="M59 357l193 -361l199 359l-197 363zM233 -15l-203 370l78 141q24 45 71 127.5t58 102.5h38q34 -62 102.5 -185t102.5 -185l-208 -371h-39z"/>
</font>
</defs>
</svg>
